<svg width="323" height="345" viewBox="0 0 323 345" fill="none" xmlns="http://www.w3.org/2000/svg">
<path fill-rule="evenodd" clip-rule="evenodd" d="M581.058 228.576C580.53 232.456 579.58 236.206 578.206 239.826C576.735 243.378 574.889 246.833 572.67 250.194C570.451 253.554 567.809 256.785 564.744 259.886C561.679 262.986 558.24 265.992 554.428 268.902C550.714 271.881 546.629 274.655 542.175 277.225C537.766 279.938 533.058 282.554 528.053 285.071C523.047 287.589 517.818 290.005 512.367 292.321C506.916 294.636 501.193 296.816 495.197 298.86C489.3 300.974 483.23 303.021 476.985 305.002C470.642 306.914 464.201 308.756 457.662 310.529C450.972 312.308 444.259 314.015 437.524 315.65C430.69 317.216 423.807 318.747 416.874 320.243C409.844 321.671 402.791 323.026 395.715 324.31C388.639 325.593 381.589 326.839 374.566 328.048C367.444 329.187 360.349 330.289 353.28 331.354C346.309 332.487 339.368 333.474 332.457 334.315C325.494 335.23 318.632 336.104 311.872 336.939C305.112 337.773 298.48 338.53 291.976 339.21C285.374 339.82 278.874 340.39 272.475 340.92C266.024 341.524 259.728 342.014 253.585 342.388C247.292 342.768 241.154 343.034 235.17 343.184C229.231 343.478 223.322 343.625 217.443 343.626C211.61 343.77 205.882 343.765 200.26 343.61C194.637 343.455 189.094 343.189 183.629 342.809C178.263 342.499 172.975 342.077 167.767 341.543C162.559 341.009 157.429 340.362 152.379 339.603C147.427 338.914 142.58 338.074 137.839 337.086C133.098 336.097 128.435 334.996 123.852 333.783C119.321 332.495 114.918 331.129 110.644 329.686C106.37 328.243 102.2 326.65 98.1366 324.907C94.0729 323.165 90.1635 321.307 86.4087 319.335C82.5556 317.293 78.8569 315.137 75.3127 312.865C71.7686 310.593 68.3297 308.172 64.9962 305.601C61.7154 302.955 58.5627 300.232 55.5381 297.431C52.4152 294.561 49.5223 291.573 46.8593 288.467C44.0454 285.367 41.386 282.152 38.881 278.822C36.3233 275.567 33.871 272.162 31.524 268.607C29.2753 265.122 27.1547 261.559 25.1622 257.918C23.1698 254.277 21.3054 250.559 19.5692 246.763C17.7803 243.042 16.1196 239.244 14.5869 235.367C13.0543 231.491 11.6726 227.609 10.4418 223.722C9.1128 219.765 7.98382 215.837 7.05488 211.939C6.02768 207.971 5.12508 204.034 4.34706 200.13C3.56904 196.226 2.89281 192.281 2.31839 188.296C1.84221 184.381 1.46428 180.534 1.18461 176.757C0.904943 172.98 0.700727 169.2 0.571975 165.417C0.594145 161.628 0.688236 157.946 0.854245 154.371C1.1185 150.865 1.45823 147.356 1.87341 143.844C2.33418 140.476 2.91953 137.14 3.62947 133.836C4.28674 130.606 5.09139 127.481 6.04342 124.459C6.84453 121.442 7.86848 118.527 9.11527 115.713C10.2111 112.904 11.4544 110.199 12.845 107.598C14.1374 104.927 15.5508 102.398 17.0853 100.01C18.6724 97.5473 20.3806 95.2256 22.2098 93.0451C23.9934 90.7206 25.849 88.5027 27.7764 86.3914C29.7039 84.28 31.7297 82.2379 33.8536 80.2649C35.9776 78.2919 38.1998 76.3881 40.5203 74.5535C42.7426 72.6497 45.1122 70.8497 47.6292 69.1534C50.0479 67.388 52.5649 65.6917 55.1801 64.0646C57.6971 62.3684 60.3387 60.7039 63.1049 59.0712C65.9166 57.5825 68.7284 56.0938 71.5401 54.605C74.4045 53.0415 77.3181 51.5126 80.2807 50.0182C83.1907 48.5987 86.2025 47.139 89.3161 45.639C92.4753 44.283 95.5853 42.8924 98.6463 41.4673C101.858 40.0365 105.119 38.6403 108.429 37.2787C111.641 35.8479 114.928 34.4143 118.291 32.9779C121.654 31.5415 125.066 30.1397 128.527 28.7724C131.89 27.336 135.328 25.8968 138.841 24.4548C142.302 23.0875 145.839 21.7175 149.451 20.3447C153.063 18.9718 156.724 17.6336 160.434 16.3299C164.144 15.0262 167.877 13.7945 171.633 12.6349C175.54 11.4695 179.469 10.3762 183.421 9.35487C187.276 8.26435 191.277 7.27762 195.426 6.39464C199.574 5.51168 203.746 4.70069 207.94 3.9617C212.233 3.29191 216.598 2.72867 221.034 2.27203C225.372 1.7462 229.832 1.36152 234.412 1.11804C238.992 0.874559 243.667 0.809638 248.437 0.923294C253.259 0.962157 258.127 1.14501 263.041 1.47183C268.053 1.86783 273.136 2.37039 278.292 2.97955C283.493 3.7327 288.815 4.62701 294.259 5.66249C299.702 6.69796 305.214 7.94941 310.794 9.41685C316.427 10.8095 322.177 12.4527 328.045 14.3464C333.965 16.1654 340.003 18.2349 346.158 20.555C352.216 22.8059 358.439 25.3419 364.83 28.1631C371.175 30.8403 377.588 33.7335 384.069 36.8427C390.551 39.9518 397.052 43.2424 403.572 46.7143C410.092 50.1863 416.582 53.805 423.043 57.5705C429.654 61.3304 436.16 65.2399 442.56 69.299C449.014 73.2833 455.362 77.4172 461.604 81.7007C467.801 85.8403 473.942 90.164 480.027 94.6719C486.066 99.0358 491.901 103.48 497.533 108.005C503.263 112.599 508.767 117.201 514.044 121.812C519.42 126.492 524.52 131.146 529.344 135.774C534.116 140.476 538.688 145.15 543.06 149.794C547.379 154.514 551.347 159.21 554.964 163.882C558.732 168.55 562.1 173.159 565.068 177.71C568.036 182.261 570.653 186.789 572.919 191.293C575.139 195.654 576.933 199.994 578.301 204.313C579.721 208.558 580.666 212.748 581.135 216.882C581.558 220.872 581.533 224.77 581.058 228.576Z" fill="#7B61FF" stroke="black"/>
</svg>
