<svg width="300" height="180" viewBox="0 0 300 180" fill="none" xmlns="http://www.w3.org/2000/svg">
<rect width="300" height="180" fill="#FF0000"/>
<path d="M178.315 38.1425C177.634 35.6126 175.639 33.6179 173.109 32.9368C168.487 31.6719 150 31.6719 150 31.6719C150 31.6719 131.513 31.6719 126.891 32.8881C124.409 33.5693 122.366 35.6126 121.685 38.1425C120.469 42.7643 120.469 52.3485 120.469 52.3485C120.469 52.3485 120.469 61.9814 121.685 66.5546C122.366 69.0845 124.361 71.0791 126.891 71.7603C131.561 73.0252 150 73.0252 150 73.0252C150 73.0252 168.487 73.0252 173.109 71.8089C175.639 71.1278 177.634 69.1331 178.315 66.6033C179.531 61.9814 179.531 52.3972 179.531 52.3972C179.531 52.3972 179.58 42.7643 178.315 38.1425Z" fill="white"/>
<path d="M144.113 60.8652L159.487 52.0107L144.113 43.1562V60.8652Z" fill="#FF0000"/>
<path d="M46.527 94.6364H52.0256L56.331 103.158H56.5099L60.8153 94.6364H66.3139L58.8665 108.199V115H53.9744V108.199L46.527 94.6364ZM71.979 115.288C70.3749 115.288 68.9961 114.96 67.8427 114.304C66.6959 113.641 65.811 112.72 65.1879 111.54C64.5714 110.353 64.2631 108.978 64.2631 107.413C64.2631 105.842 64.5714 104.467 65.1879 103.287C65.811 102.1 66.6959 101.179 67.8427 100.523C68.9961 99.8598 70.3749 99.5284 71.979 99.5284C73.5832 99.5284 74.9587 99.8598 76.1055 100.523C77.2589 101.179 78.1438 102.1 78.7603 103.287C79.3834 104.467 79.695 105.842 79.695 107.413C79.695 108.978 79.3834 110.353 78.7603 111.54C78.1438 112.72 77.2589 113.641 76.1055 114.304C74.9587 114.96 73.5832 115.288 71.979 115.288ZM72.0089 111.619C72.5922 111.619 73.0861 111.44 73.4904 111.082C73.8948 110.724 74.203 110.227 74.4151 109.591C74.6339 108.955 74.7433 108.219 74.7433 107.384C74.7433 106.535 74.6339 105.793 74.4151 105.156C74.203 104.52 73.8948 104.023 73.4904 103.665C73.0861 103.307 72.5922 103.128 72.0089 103.128C71.4057 103.128 70.8952 103.307 70.4776 103.665C70.0666 104.023 69.7518 104.52 69.533 105.156C69.3209 105.793 69.2148 106.535 69.2148 107.384C69.2148 108.219 69.3209 108.955 69.533 109.591C69.7518 110.227 70.0666 110.724 70.4776 111.082C70.8952 111.44 71.4057 111.619 72.0089 111.619ZM92.0394 108.408V99.7273H96.8917V115H92.2582V112.156H92.0991C91.761 113.091 91.1843 113.833 90.369 114.384C89.5603 114.927 88.5825 115.199 87.4357 115.199C86.395 115.199 85.4802 114.96 84.6914 114.483C83.9026 114.006 83.2894 113.339 82.8519 112.484C82.4144 111.623 82.1924 110.615 82.1857 109.462V99.7273H87.0479V108.507C87.0546 109.336 87.2733 109.989 87.7042 110.466C88.1351 110.943 88.7217 111.182 89.4641 111.182C89.948 111.182 90.3822 111.076 90.7667 110.864C91.1578 110.645 91.466 110.33 91.6914 109.919C91.9234 109.501 92.0394 108.998 92.0394 108.408ZM97.8984 98.6335V94.6364H115.11V98.6335H108.935V115H104.083V98.6335H97.8984ZM125.289 108.408V99.7273H130.142V115H125.508V112.156H125.349C125.011 113.091 124.434 113.833 123.619 114.384C122.81 114.927 121.833 115.199 120.686 115.199C119.645 115.199 118.73 114.96 117.941 114.483C117.153 114.006 116.539 113.339 116.102 112.484C115.664 111.623 115.442 110.615 115.436 109.462V99.7273H120.298V108.507C120.305 109.336 120.523 109.989 120.954 110.466C121.385 110.943 121.972 111.182 122.714 111.182C123.198 111.182 123.632 111.076 124.017 110.864C124.408 110.645 124.716 110.33 124.941 109.919C125.173 109.501 125.289 108.998 125.289 108.408ZM133.237 115V94.6364H138.099V102.342H138.198C138.397 101.878 138.679 101.431 139.043 101C139.415 100.569 139.885 100.218 140.455 99.946C141.032 99.6676 141.721 99.5284 142.523 99.5284C143.584 99.5284 144.575 99.8068 145.496 100.364C146.424 100.92 147.174 101.779 147.744 102.939C148.314 104.099 148.599 105.577 148.599 107.374C148.599 109.104 148.324 110.552 147.773 111.719C147.23 112.885 146.494 113.76 145.566 114.344C144.645 114.927 143.621 115.219 142.494 115.219C141.725 115.219 141.058 115.093 140.495 114.841C139.932 114.589 139.458 114.258 139.073 113.847C138.695 113.436 138.404 112.995 138.198 112.524H138.049V115H133.237ZM137.999 107.364C137.999 108.186 138.109 108.902 138.327 109.511C138.553 110.121 138.874 110.595 139.292 110.933C139.716 111.265 140.223 111.43 140.813 111.43C141.41 111.43 141.917 111.265 142.335 110.933C142.752 110.595 143.067 110.121 143.279 109.511C143.498 108.902 143.607 108.186 143.607 107.364C143.607 106.542 143.498 105.829 143.279 105.226C143.067 104.623 142.752 104.155 142.335 103.824C141.924 103.492 141.416 103.327 140.813 103.327C140.217 103.327 139.71 103.489 139.292 103.814C138.874 104.139 138.553 104.603 138.327 105.206C138.109 105.809 137.999 106.528 137.999 107.364ZM158.286 115.288C156.688 115.288 155.31 114.973 154.15 114.344C152.996 113.707 152.108 112.803 151.485 111.629C150.868 110.449 150.56 109.047 150.56 107.423C150.56 105.846 150.872 104.467 151.495 103.287C152.118 102.1 152.996 101.179 154.13 100.523C155.263 99.8598 156.599 99.5284 158.137 99.5284C159.224 99.5284 160.218 99.6974 161.12 100.036C162.021 100.374 162.8 100.874 163.456 101.537C164.113 102.2 164.623 103.018 164.988 103.993C165.352 104.961 165.534 106.071 165.534 107.324V108.537H152.26V105.713H161.01C161.004 105.196 160.881 104.735 160.642 104.331C160.404 103.927 160.076 103.612 159.658 103.386C159.247 103.154 158.773 103.038 158.236 103.038C157.693 103.038 157.205 103.161 156.775 103.406C156.344 103.645 156.002 103.973 155.75 104.391C155.498 104.802 155.366 105.269 155.353 105.793V108.666C155.353 109.289 155.475 109.836 155.721 110.307C155.966 110.771 156.314 111.132 156.765 111.391C157.215 111.649 157.752 111.778 158.375 111.778C158.806 111.778 159.197 111.719 159.549 111.599C159.9 111.48 160.202 111.304 160.453 111.072C160.705 110.84 160.894 110.555 161.02 110.217L165.485 110.347C165.299 111.348 164.891 112.219 164.262 112.962C163.639 113.697 162.82 114.271 161.806 114.682C160.792 115.086 159.618 115.288 158.286 115.288ZM192.518 102.014H187.546C187.48 101.504 187.344 101.043 187.138 100.632C186.933 100.221 186.661 99.8698 186.323 99.5781C185.985 99.2865 185.584 99.0644 185.12 98.9119C184.663 98.7528 184.156 98.6733 183.599 98.6733C182.611 98.6733 181.759 98.9152 181.043 99.3991C180.334 99.883 179.787 100.582 179.403 101.497C179.025 102.412 178.836 103.519 178.836 104.818C178.836 106.17 179.028 107.304 179.413 108.219C179.804 109.127 180.351 109.813 181.053 110.277C181.763 110.734 182.601 110.963 183.569 110.963C184.112 110.963 184.606 110.893 185.05 110.754C185.501 110.615 185.896 110.413 186.234 110.148C186.578 109.876 186.86 109.548 187.079 109.163C187.304 108.772 187.46 108.331 187.546 107.841L192.518 107.871C192.432 108.772 192.17 109.661 191.732 110.536C191.301 111.411 190.708 112.209 189.952 112.932C189.197 113.648 188.275 114.218 187.188 114.642C186.108 115.066 184.868 115.278 183.469 115.278C181.627 115.278 179.976 114.874 178.518 114.065C177.066 113.25 175.919 112.063 175.077 110.506C174.236 108.948 173.815 107.052 173.815 104.818C173.815 102.578 174.242 100.679 175.097 99.1207C175.952 97.563 177.109 96.3797 178.567 95.571C180.026 94.7623 181.66 94.358 183.469 94.358C184.702 94.358 185.843 94.5303 186.89 94.875C187.937 95.2131 188.859 95.7102 189.654 96.3665C190.45 97.0161 191.096 97.8149 191.593 98.7628C192.09 99.7107 192.398 100.795 192.518 102.014ZM200.196 94.6364V115H195.334V94.6364H200.196ZM210.42 115.288C208.816 115.288 207.438 114.96 206.284 114.304C205.137 113.641 204.252 112.72 203.629 111.54C203.013 110.353 202.705 108.978 202.705 107.413C202.705 105.842 203.013 104.467 203.629 103.287C204.252 102.1 205.137 101.179 206.284 100.523C207.438 99.8598 208.816 99.5284 210.42 99.5284C212.025 99.5284 213.4 99.8598 214.547 100.523C215.7 101.179 216.585 102.1 217.202 103.287C217.825 104.467 218.136 105.842 218.136 107.413C218.136 108.978 217.825 110.353 217.202 111.54C216.585 112.72 215.7 113.641 214.547 114.304C213.4 114.96 212.025 115.288 210.42 115.288ZM210.45 111.619C211.034 111.619 211.527 111.44 211.932 111.082C212.336 110.724 212.644 110.227 212.857 109.591C213.075 108.955 213.185 108.219 213.185 107.384C213.185 106.535 213.075 105.793 212.857 105.156C212.644 104.52 212.336 104.023 211.932 103.665C211.527 103.307 211.034 103.128 210.45 103.128C209.847 103.128 209.337 103.307 208.919 103.665C208.508 104.023 208.193 104.52 207.974 105.156C207.762 105.793 207.656 106.535 207.656 107.384C207.656 108.219 207.762 108.955 207.974 109.591C208.193 110.227 208.508 110.724 208.919 111.082C209.337 111.44 209.847 111.619 210.45 111.619ZM225.489 106.29V115H220.627V99.7273H225.251V102.531H225.42C225.758 101.597 226.335 100.864 227.15 100.334C227.965 99.7969 228.936 99.5284 230.063 99.5284C231.137 99.5284 232.068 99.7704 232.857 100.254C233.653 100.732 234.269 101.401 234.707 102.263C235.151 103.118 235.37 104.119 235.363 105.266V115H230.501V106.22C230.507 105.372 230.292 104.709 229.854 104.232C229.424 103.754 228.824 103.516 228.055 103.516C227.544 103.516 227.094 103.628 226.702 103.854C226.318 104.072 226.02 104.387 225.808 104.798C225.602 105.209 225.496 105.706 225.489 106.29ZM245.512 115.288C243.915 115.288 242.536 114.973 241.376 114.344C240.223 113.707 239.334 112.803 238.711 111.629C238.095 110.449 237.787 109.047 237.787 107.423C237.787 105.846 238.098 104.467 238.721 103.287C239.344 102.1 240.223 101.179 241.356 100.523C242.49 99.8598 243.825 99.5284 245.363 99.5284C246.45 99.5284 247.445 99.6974 248.346 100.036C249.248 100.374 250.027 100.874 250.683 101.537C251.339 102.2 251.85 103.018 252.214 103.993C252.579 104.961 252.761 106.071 252.761 107.324V108.537H239.487V105.713H248.237C248.23 105.196 248.108 104.735 247.869 104.331C247.63 103.927 247.302 103.612 246.885 103.386C246.474 103.154 246 103.038 245.463 103.038C244.919 103.038 244.432 103.161 244.001 103.406C243.57 103.645 243.229 103.973 242.977 104.391C242.725 104.802 242.592 105.269 242.579 105.793V108.666C242.579 109.289 242.702 109.836 242.947 110.307C243.192 110.771 243.54 111.132 243.991 111.391C244.442 111.649 244.979 111.778 245.602 111.778C246.033 111.778 246.424 111.719 246.775 111.599C247.127 111.48 247.428 111.304 247.68 111.072C247.932 110.84 248.121 110.555 248.247 110.217L252.711 110.347C252.526 111.348 252.118 112.219 251.488 112.962C250.865 113.697 250.047 114.271 249.032 114.682C248.018 115.086 246.845 115.288 245.512 115.288Z" fill="white"/>
<path d="M93.5115 145.977C93.5115 144.633 92.3871 143.542 91 143.542C89.613 143.542 88.4885 144.633 88.4885 145.977C88.4885 147.322 89.613 148.413 91 148.413C92.3871 148.413 93.5115 147.322 93.5115 145.977Z" fill="#53C1DE"/>
<path fill-rule="evenodd" clip-rule="evenodd" d="M99.1566 141.457C99.687 139.367 100.354 135.492 98.0035 134.178C95.6644 132.87 92.6204 135.377 91.0131 136.881C89.4104 135.392 86.281 132.896 83.9328 134.214C81.5945 135.526 82.3156 139.337 82.8577 141.44C80.6765 142.04 76.9375 143.334 76.9375 145.977C76.9375 148.613 80.6727 150.021 82.8409 150.621C82.2968 152.735 81.6118 156.491 83.9531 157.801C86.3099 159.119 89.4297 156.682 91.0519 155.161C92.6696 156.675 95.6843 159.127 98.0239 157.814C100.371 156.497 99.7596 152.673 99.2175 150.559C101.319 149.957 105.062 148.58 105.062 145.977C105.062 143.36 101.303 142.055 99.1566 141.457ZM98.8902 149.438C98.5342 148.345 98.0538 147.183 97.466 145.983C98.027 144.811 98.4888 143.665 98.8348 142.579C100.409 143.021 103.861 144.032 103.861 145.977C103.861 147.941 100.548 148.961 98.8902 149.438ZM97.4218 156.806C95.6763 157.785 93.0833 155.44 91.8886 154.326C92.6811 153.485 93.4731 152.508 94.2461 151.423C95.6058 151.306 96.8903 151.115 98.0553 150.854C98.4368 152.35 99.1752 155.822 97.4218 156.806ZM84.5534 156.792C82.8076 155.816 83.6055 152.464 84.0058 150.906C85.1578 151.153 86.433 151.331 87.796 151.438C88.5741 152.5 89.389 153.476 90.2102 154.33C89.1956 155.282 86.3074 157.772 84.5534 156.792ZM78.1389 145.977C78.1389 144.007 81.5707 143.003 83.1804 142.562C83.5324 143.672 83.994 144.832 84.5512 146.006C83.9868 147.197 83.5185 148.376 83.1633 149.499C81.6285 149.073 78.1389 147.949 78.1389 145.977ZM84.5347 135.222C86.2877 134.238 89.0075 136.634 90.1711 137.713C89.3541 138.563 88.5467 139.532 87.7753 140.587C86.4526 140.706 85.1863 140.897 84.0223 141.153C83.5855 139.457 82.7837 136.205 84.5347 135.222ZM95.1056 141.854C96.003 141.963 96.8627 142.109 97.67 142.288C97.4277 143.041 97.1256 143.829 96.7699 144.636C96.2541 143.687 95.7005 142.758 95.1056 141.854ZM91.0134 138.545C91.5676 139.127 92.1226 139.777 92.6685 140.482C91.5611 140.432 90.4519 140.431 89.3444 140.482C89.8908 139.783 90.4506 139.134 91.0134 138.545ZM85.2405 144.635C84.8906 143.831 84.5912 143.04 84.3468 142.276C85.1492 142.102 86.005 141.959 86.8966 141.851C86.3 142.754 85.7473 143.683 85.2405 144.635ZM86.9222 150.187C86.0011 150.087 85.1324 149.952 84.3302 149.783C84.5785 149.005 84.8845 148.197 85.2418 147.375C85.7557 148.337 86.3167 149.276 86.9222 150.187ZM91.0467 153.492C90.4772 152.896 89.9093 152.237 89.3545 151.529C90.4683 151.571 91.5842 151.571 92.6978 151.523C92.1501 152.245 91.5971 152.904 91.0467 153.492ZM96.7813 147.333C97.1572 148.164 97.4741 148.968 97.7258 149.732C96.9103 149.913 96.0299 150.058 95.1022 150.166C95.7016 149.244 96.2639 148.3 96.7813 147.333ZM93.5756 150.307C91.872 150.425 90.1577 150.424 88.4536 150.317C87.4852 148.945 86.6232 147.503 85.8791 146.005C86.6196 144.511 87.4753 143.072 88.4391 141.702C90.1446 141.577 91.8605 141.577 93.5658 141.703C94.5213 143.072 95.3758 144.508 96.1334 145.989C95.3848 147.482 94.5246 148.925 93.5756 150.307ZM97.4034 135.187C99.1568 136.168 98.3763 139.651 97.9933 141.165C96.8265 140.904 95.5594 140.71 94.2328 140.589C93.4599 139.522 92.6592 138.552 91.8554 137.712C93.0339 136.61 95.667 134.216 97.4034 135.187Z" fill="#53C1DE"/>
<rect x="117.875" y="132.875" width="26.25" height="26.25" fill="#FFCA28"/>
<path d="M133.812 154.707L135.745 153.428C135.897 153.904 136.856 155.034 138.067 155.034C139.279 155.034 139.841 154.373 139.841 153.934C139.841 152.738 138.604 152.317 138.01 152.114C137.913 152.081 137.833 152.054 137.779 152.031C137.751 152.018 137.709 152.002 137.654 151.981C136.993 151.729 134.555 150.797 134.555 148.097C134.555 145.123 137.425 144.781 138.075 144.781C138.499 144.781 140.541 144.833 141.558 146.744L139.683 148.053C139.272 147.22 138.589 146.945 138.168 146.945C137.13 146.945 136.913 147.706 136.913 148.053C136.913 149.025 138.042 149.461 138.994 149.829C139.244 149.925 139.481 150.017 139.683 150.112C140.721 150.603 142.25 151.406 142.25 153.934C142.25 155.2 141.188 157.25 138.514 157.25C134.923 157.25 133.971 155.094 133.812 154.707Z" fill="#3E3E3E"/>
<path d="M124.438 154.961L126.452 153.683C126.61 154.159 127.223 155.035 128.113 155.035C129.003 155.035 129.458 154.121 129.458 153.683V145.063H131.936V153.683C131.976 154.872 131.316 157.25 128.406 157.25C125.73 157.25 124.618 155.66 124.438 154.961Z" fill="#3E3E3E"/>
<path d="M161.625 157.25L159.75 133.812H182.25L180.375 157.25L171 160.062L161.625 157.25Z" fill="#1172B8"/>
<path d="M180.375 135.688H171V158.656L178.5 156.312L180.375 135.688Z" fill="#33AADD"/>
<path d="M174.281 147.406H164.906L164.437 144.125L171.937 141.781H164.437L163.969 138.969H178.5L178.031 142.25L171.937 144.594H177.562L176.625 153.5L171 155.375L165.375 153.5L164.906 148.812H167.719L168.187 151.156L171 152.094L173.812 151.156L174.281 147.406Z" fill="white"/>
<path d="M201.625 157.25L199.75 133.812H222.25L220.375 157.25L211 160.062L201.625 157.25Z" fill="#E44D26"/>
<path d="M220.375 135.688H211V158.656L218.5 156.312L220.375 135.688Z" fill="#F16529"/>
<path d="M204.906 147.406L203.969 138.5H218.5L218.031 141.312H206.781L207.25 144.594H217.562L216.625 153.5L211 155.375L205.375 153.5L204.906 148.812H207.719L208.188 151.156L211 152.094L213.812 151.156L214.281 147.406H204.906Z" fill="white"/>
</svg>
