<svg width="391" height="501" viewBox="0 0 391 501" fill="none" xmlns="http://www.w3.org/2000/svg">
<path fill-rule="evenodd" clip-rule="evenodd" d="M-76.1809 22.6043C-32.5315 1.81169 15.4257 4.12819 61.9885 1.60544C103.372 -0.636712 143.104 1.86222 182.788 8.57356C224.343 15.6013 267.481 20.2185 301.237 42.0666C336.631 64.9759 366.007 96.9675 380.07 136.265C394.126 175.543 392.837 220.823 380.56 263.731C368.874 304.576 344.197 343.282 311.922 374.452C282.409 402.953 240.097 411.414 205.118 433.164C172.015 453.747 148.103 493.695 110.636 499.609C72.947 505.559 48.1539 464.835 10.8708 463.829C-39.1578 462.479 -94.4144 511.002 -138.597 492.883C-178.765 476.41 -186.061 423.06 -192.03 380.619C-197.616 340.905 -171.811 299.891 -171.472 259.132C-171.077 211.554 -208.55 167.928 -189.879 121.584C-171.664 76.3714 -122.045 44.4519 -76.1809 22.6043Z" fill="#EC493E"/>
</svg>
