<svg width="300" height="180" viewBox="0 0 300 180" fill="none" xmlns="http://www.w3.org/2000/svg">
<rect width="300" height="180" fill="black"/>
<path d="M95.5115 138.977C95.5115 137.633 94.3871 136.542 93 136.542C91.613 136.542 90.4885 137.633 90.4885 138.977C90.4885 140.322 91.613 141.413 93 141.413C94.3871 141.413 95.5115 140.322 95.5115 138.977Z" fill="#53C1DE"/>
<path fill-rule="evenodd" clip-rule="evenodd" d="M101.157 134.457C101.687 132.367 102.354 128.492 100.003 127.178C97.6644 125.87 94.6204 128.377 93.0131 129.881C91.4104 128.392 88.281 125.896 85.9328 127.214C83.5945 128.526 84.3156 132.337 84.8577 134.44C82.6765 135.04 78.9375 136.334 78.9375 138.977C78.9375 141.613 82.6727 143.021 84.8409 143.621C84.2968 145.735 83.6118 149.491 85.9531 150.801C88.3099 152.119 91.4297 149.682 93.0519 148.161C94.6696 149.675 97.6843 152.127 100.024 150.814C102.371 149.497 101.76 145.673 101.217 143.559C103.319 142.957 107.062 141.58 107.062 138.977C107.062 136.36 103.303 135.055 101.157 134.457ZM100.89 142.438C100.534 141.345 100.054 140.183 99.466 138.983C100.027 137.811 100.489 136.665 100.835 135.579C102.409 136.021 105.861 137.032 105.861 138.977C105.861 140.941 102.548 141.961 100.89 142.438ZM99.4218 149.806C97.6763 150.785 95.0833 148.44 93.8886 147.326C94.6811 146.485 95.4731 145.508 96.2461 144.423C97.6058 144.306 98.8903 144.115 100.055 143.854C100.437 145.35 101.175 148.822 99.4218 149.806ZM86.5534 149.792C84.8076 148.816 85.6055 145.464 86.0058 143.906C87.1578 144.153 88.433 144.331 89.796 144.438C90.5741 145.5 91.389 146.476 92.2102 147.33C91.1956 148.282 88.3074 150.772 86.5534 149.792ZM80.1389 138.977C80.1389 137.007 83.5707 136.003 85.1804 135.562C85.5324 136.672 85.994 137.832 86.5512 139.006C85.9868 140.197 85.5185 141.376 85.1633 142.499C83.6285 142.073 80.1389 140.949 80.1389 138.977ZM86.5347 128.222C88.2877 127.238 91.0075 129.634 92.1711 130.713C91.3541 131.563 90.5467 132.532 89.7753 133.587C88.4526 133.706 87.1863 133.897 86.0223 134.153C85.5855 132.457 84.7837 129.205 86.5347 128.222ZM97.1056 134.854C98.003 134.963 98.8627 135.109 99.67 135.288C99.4277 136.041 99.1256 136.829 98.7699 137.636C98.2541 136.687 97.7005 135.758 97.1056 134.854ZM93.0134 131.545C93.5676 132.127 94.1226 132.777 94.6685 133.482C93.5611 133.432 92.4519 133.431 91.3444 133.482C91.8908 132.783 92.4506 132.134 93.0134 131.545ZM87.2405 137.635C86.8906 136.831 86.5912 136.04 86.3468 135.276C87.1492 135.102 88.005 134.959 88.8966 134.851C88.3 135.754 87.7473 136.683 87.2405 137.635ZM88.9222 143.187C88.0011 143.087 87.1324 142.952 86.3302 142.783C86.5785 142.005 86.8845 141.197 87.2418 140.375C87.7557 141.337 88.3167 142.276 88.9222 143.187ZM93.0467 146.492C92.4772 145.896 91.9093 145.237 91.3545 144.529C92.4683 144.571 93.5842 144.571 94.6978 144.523C94.1501 145.245 93.5971 145.904 93.0467 146.492ZM98.7813 140.333C99.1572 141.164 99.4741 141.968 99.7258 142.732C98.9103 142.913 98.0299 143.058 97.1022 143.166C97.7016 142.244 98.2639 141.3 98.7813 140.333ZM95.5756 143.307C93.872 143.425 92.1577 143.424 90.4536 143.317C89.4852 141.945 88.6232 140.503 87.8791 139.005C88.6196 137.511 89.4753 136.072 90.4391 134.702C92.1446 134.577 93.8605 134.577 95.5658 134.703C96.5213 136.072 97.3758 137.508 98.1334 138.989C97.3848 140.482 96.5246 141.925 95.5756 143.307ZM99.4034 128.187C101.157 129.168 100.376 132.651 99.9933 134.165C98.8265 133.904 97.5594 133.71 96.2328 133.589C95.4599 132.522 94.6592 131.552 93.8554 130.712C95.0339 129.61 97.667 127.216 99.4034 128.187Z" fill="#53C1DE"/>
<rect x="119.875" y="125.875" width="26.25" height="26.25" fill="#FFCA28"/>
<path d="M135.812 147.707L137.745 146.428C137.897 146.904 138.856 148.034 140.067 148.034C141.279 148.034 141.841 147.373 141.841 146.934C141.841 145.738 140.604 145.317 140.01 145.114C139.913 145.081 139.833 145.054 139.779 145.031C139.751 145.018 139.709 145.002 139.654 144.981C138.993 144.729 136.555 143.797 136.555 141.097C136.555 138.123 139.425 137.781 140.075 137.781C140.499 137.781 142.541 137.833 143.558 139.744L141.683 141.053C141.272 140.22 140.589 139.945 140.168 139.945C139.13 139.945 138.913 140.706 138.913 141.053C138.913 142.025 140.042 142.461 140.994 142.829C141.244 142.925 141.481 143.017 141.683 143.112C142.721 143.603 144.25 144.406 144.25 146.934C144.25 148.2 143.188 150.25 140.514 150.25C136.923 150.25 135.971 148.094 135.812 147.707Z" fill="#3E3E3E"/>
<path d="M126.438 147.961L128.452 146.683C128.61 147.159 129.223 148.035 130.113 148.035C131.003 148.035 131.458 147.121 131.458 146.683V138.063H133.936V146.683C133.976 147.872 133.316 150.25 130.406 150.25C127.73 150.25 126.618 148.66 126.438 147.961Z" fill="#3E3E3E"/>
<path d="M163.625 150.25L161.75 126.812H184.25L182.375 150.25L173 153.062L163.625 150.25Z" fill="#1172B8"/>
<path d="M182.375 128.688H173V151.656L180.5 149.312L182.375 128.688Z" fill="#33AADD"/>
<path d="M176.281 140.406H166.906L166.438 137.125L173.938 134.781H166.438L165.969 131.969H180.5L180.031 135.25L173.938 137.594H179.563L178.625 146.5L173 148.375L167.375 146.5L166.906 141.812H169.719L170.188 144.156L173 145.094L175.813 144.156L176.281 140.406Z" fill="white"/>
<path d="M203.625 150.25L201.75 126.812H224.25L222.375 150.25L213 153.062L203.625 150.25Z" fill="#E44D26"/>
<path d="M222.375 128.688H213V151.656L220.5 149.312L222.375 128.688Z" fill="#F16529"/>
<path d="M206.906 140.406L205.969 131.5H220.5L220.031 134.312H208.781L209.25 137.594H219.562L218.625 146.5L213 148.375L207.375 146.5L206.906 141.812H209.719L210.188 144.156L213 145.094L215.812 144.156L216.281 140.406H206.906Z" fill="white"/>
<path d="M63.0256 88.0142H58.054C57.9877 87.5038 57.8518 87.0431 57.6463 86.6321C57.4408 86.2211 57.169 85.8698 56.831 85.5781C56.4929 85.2865 56.0919 85.0644 55.6278 84.9119C55.1705 84.7528 54.6634 84.6733 54.1065 84.6733C53.1188 84.6733 52.267 84.9152 51.5511 85.3991C50.8419 85.883 50.295 86.5824 49.9105 87.4972C49.5327 88.4119 49.3438 89.5189 49.3438 90.8182C49.3438 92.1705 49.536 93.304 49.9205 94.2188C50.3116 95.1269 50.8584 95.813 51.5611 96.277C52.2704 96.7344 53.1089 96.9631 54.0767 96.9631C54.6203 96.9631 55.1141 96.8935 55.5582 96.7543C56.009 96.6151 56.4034 96.4129 56.7415 96.1477C57.0862 95.8759 57.3679 95.5478 57.5866 95.1634C57.812 94.7723 57.9678 94.3314 58.054 93.8409L63.0256 93.8707C62.9394 94.7723 62.6776 95.6605 62.2401 96.5355C61.8092 97.4105 61.2159 98.2093 60.4602 98.9318C59.7045 99.6477 58.7831 100.218 57.696 100.642C56.6155 101.066 55.3759 101.278 53.9773 101.278C52.1345 101.278 50.4839 100.874 49.0256 100.065C47.5739 99.25 46.4271 98.0634 45.5852 96.5057C44.7434 94.9479 44.3224 93.0521 44.3224 90.8182C44.3224 88.5777 44.75 86.6785 45.6051 85.1207C46.4602 83.563 47.617 82.3797 49.0753 81.571C50.5336 80.7623 52.1676 80.358 53.9773 80.358C55.2102 80.358 56.3504 80.5303 57.3977 80.875C58.4451 81.2131 59.3665 81.7102 60.1619 82.3665C60.9574 83.0161 61.6037 83.8149 62.1009 84.7628C62.598 85.7107 62.9062 86.7945 63.0256 88.0142ZM72.9712 101.288C71.3671 101.288 69.9883 100.96 68.8349 100.304C67.6881 99.6411 66.8031 98.7197 66.18 97.5398C65.5636 96.3532 65.2553 94.9777 65.2553 93.4134C65.2553 91.8423 65.5636 90.4669 66.18 89.2869C66.8031 88.1004 67.6881 87.179 68.8349 86.5227C69.9883 85.8598 71.3671 85.5284 72.9712 85.5284C74.5754 85.5284 75.9509 85.8598 77.0977 86.5227C78.2511 87.179 79.136 88.1004 79.7525 89.2869C80.3756 90.4669 80.6871 91.8423 80.6871 93.4134C80.6871 94.9777 80.3756 96.3532 79.7525 97.5398C79.136 98.7197 78.2511 99.6411 77.0977 100.304C75.9509 100.96 74.5754 101.288 72.9712 101.288ZM73.0011 97.6193C73.5844 97.6193 74.0782 97.4403 74.4826 97.0824C74.887 96.7244 75.1952 96.2273 75.4073 95.5909C75.6261 94.9545 75.7354 94.2187 75.7354 93.3835C75.7354 92.535 75.6261 91.7926 75.4073 91.1562C75.1952 90.5199 74.887 90.0227 74.4826 89.6648C74.0782 89.3068 73.5844 89.1278 73.0011 89.1278C72.3978 89.1278 71.8874 89.3068 71.4698 89.6648C71.0588 90.0227 70.744 90.5199 70.5252 91.1562C70.3131 91.7926 70.207 92.535 70.207 93.3835C70.207 94.2187 70.3131 94.9545 70.5252 95.5909C70.744 96.2273 71.0588 96.7244 71.4698 97.0824C71.8874 97.4403 72.3978 97.6193 73.0011 97.6193ZM88.756 101.219C87.6291 101.219 86.605 100.927 85.6836 100.344C84.7622 99.7604 84.0264 98.8854 83.4762 97.7188C82.926 96.5521 82.6509 95.1037 82.6509 93.3736C82.6509 91.5772 82.936 90.099 83.506 88.9389C84.0761 87.7789 84.8219 86.9205 85.7433 86.3636C86.6713 85.8068 87.6689 85.5284 88.7362 85.5284C89.5382 85.5284 90.2243 85.6676 90.7944 85.946C91.3645 86.2178 91.8351 86.5691 92.2063 87C92.5775 87.4309 92.8593 87.8783 93.0515 88.3423H93.1509V80.6364H98.0131V101H93.2006V98.5241H93.0515C92.846 98.9948 92.5543 99.4356 92.1765 99.8466C91.7987 100.258 91.3247 100.589 90.7546 100.841C90.1912 101.093 89.525 101.219 88.756 101.219ZM90.4464 97.4304C91.0363 97.4304 91.5401 97.2647 91.9577 96.9332C92.3754 96.5952 92.6969 96.1212 92.9222 95.5114C93.1476 94.9015 93.2603 94.1856 93.2603 93.3636C93.2603 92.5284 93.1476 91.8092 92.9222 91.206C92.7035 90.6027 92.382 90.1387 91.9577 89.8139C91.5401 89.4891 91.0363 89.3267 90.4464 89.3267C89.8432 89.3267 89.3327 89.4924 88.9151 89.8239C88.4975 90.1553 88.1793 90.6226 87.9606 91.2259C87.7485 91.8291 87.6424 92.5417 87.6424 93.3636C87.6424 94.1856 87.7518 94.9015 87.9705 95.5114C88.1893 96.1212 88.5041 96.5952 88.9151 96.9332C89.3327 97.2647 89.8432 97.4304 90.4464 97.4304ZM108.227 101.288C106.63 101.288 105.251 100.973 104.091 100.344C102.938 99.7074 102.049 98.8026 101.426 97.6293C100.81 96.4493 100.501 95.0473 100.501 93.4233C100.501 91.8456 100.813 90.4669 101.436 89.2869C102.059 88.1004 102.938 87.179 104.071 86.5227C105.205 85.8598 106.54 85.5284 108.078 85.5284C109.165 85.5284 110.16 85.6974 111.061 86.0355C111.963 86.3736 112.741 86.8741 113.398 87.5369C114.054 88.1998 114.564 89.0185 114.929 89.9929C115.294 90.9607 115.476 92.071 115.476 93.3239V94.5369H102.202V91.7131H110.952C110.945 91.196 110.822 90.7353 110.584 90.331C110.345 89.9266 110.017 89.6117 109.599 89.3864C109.188 89.1544 108.714 89.0384 108.178 89.0384C107.634 89.0384 107.147 89.161 106.716 89.4062C106.285 89.6449 105.944 89.973 105.692 90.3906C105.44 90.8016 105.307 91.2689 105.294 91.7926V94.6662C105.294 95.2893 105.417 95.8362 105.662 96.3068C105.907 96.7708 106.255 97.1321 106.706 97.3906C107.157 97.6491 107.694 97.7784 108.317 97.7784C108.748 97.7784 109.139 97.7187 109.49 97.5994C109.841 97.4801 110.143 97.3045 110.395 97.0724C110.647 96.8404 110.836 96.5554 110.962 96.2173L115.426 96.3466C115.241 97.3475 114.833 98.2192 114.203 98.9616C113.58 99.6974 112.761 100.271 111.747 100.682C110.733 101.086 109.56 101.288 108.227 101.288ZM117.959 101V80.6364H126.371C127.896 80.6364 129.212 80.9347 130.319 81.5312C131.432 82.1212 132.291 82.9465 132.894 84.0071C133.497 85.0611 133.799 86.2874 133.799 87.6861C133.799 89.0914 133.49 90.321 132.874 91.375C132.264 92.4223 131.392 93.2344 130.259 93.8111C129.125 94.3878 127.78 94.6761 126.222 94.6761H121.032V90.7983H125.307C126.05 90.7983 126.669 90.669 127.167 90.4105C127.67 90.152 128.051 89.7907 128.31 89.3267C128.569 88.8561 128.698 88.3092 128.698 87.6861C128.698 87.0563 128.569 86.5128 128.31 86.0554C128.051 85.5914 127.67 85.2334 127.167 84.9815C126.663 84.7296 126.043 84.6037 125.307 84.6037H122.881V101H117.959ZM143.063 101.288C141.466 101.288 140.087 100.973 138.927 100.344C137.773 99.7074 136.885 98.8026 136.262 97.6293C135.646 96.4493 135.337 95.0473 135.337 93.4233C135.337 91.8456 135.649 90.4669 136.272 89.2869C136.895 88.1004 137.773 87.179 138.907 86.5227C140.04 85.8598 141.376 85.5284 142.914 85.5284C144.001 85.5284 144.996 85.6974 145.897 86.0355C146.799 86.3736 147.577 86.8741 148.234 87.5369C148.89 88.1998 149.4 89.0185 149.765 89.9929C150.129 90.9607 150.312 92.071 150.312 93.3239V94.5369H137.038V91.7131H145.788C145.781 91.196 145.658 90.7353 145.42 90.331C145.181 89.9266 144.853 89.6117 144.435 89.3864C144.024 89.1544 143.55 89.0384 143.013 89.0384C142.47 89.0384 141.983 89.161 141.552 89.4062C141.121 89.6449 140.78 89.973 140.528 90.3906C140.276 90.8016 140.143 91.2689 140.13 91.7926V94.6662C140.13 95.2893 140.253 95.8362 140.498 96.3068C140.743 96.7708 141.091 97.1321 141.542 97.3906C141.993 97.6491 142.53 97.7784 143.153 97.7784C143.584 97.7784 143.975 97.7187 144.326 97.5994C144.677 97.4801 144.979 97.3045 145.231 97.0724C145.483 96.8404 145.672 96.5554 145.798 96.2173L150.262 96.3466C150.076 97.3475 149.669 98.2192 149.039 98.9616C148.416 99.6974 147.597 100.271 146.583 100.682C145.569 101.086 144.396 101.288 143.063 101.288ZM157.657 92.2898V101H152.795V85.7273H157.419V88.5312H157.588C157.926 87.5966 158.502 86.8641 159.318 86.3338C160.133 85.7969 161.104 85.5284 162.231 85.5284C163.305 85.5284 164.236 85.7704 165.025 86.2543C165.821 86.7315 166.437 87.401 166.875 88.2628C167.319 89.1179 167.538 90.1188 167.531 91.2656V101H162.669V92.2202C162.675 91.3717 162.46 90.7088 162.022 90.2315C161.592 89.7543 160.992 89.5156 160.223 89.5156C159.712 89.5156 159.261 89.6283 158.87 89.8537C158.486 90.0724 158.188 90.3873 157.975 90.7983C157.77 91.2093 157.664 91.7064 157.657 92.2898ZM195.041 88.0142H190.07C190.003 87.5038 189.867 87.0431 189.662 86.6321C189.456 86.2211 189.185 85.8698 188.847 85.5781C188.509 85.2865 188.107 85.0644 187.643 84.9119C187.186 84.7528 186.679 84.6733 186.122 84.6733C185.134 84.6733 184.283 84.9152 183.567 85.3991C182.857 85.883 182.311 86.5824 181.926 87.4972C181.548 88.4119 181.359 89.5189 181.359 90.8182C181.359 92.1705 181.552 93.304 181.936 94.2188C182.327 95.1269 182.874 95.813 183.577 96.277C184.286 96.7344 185.125 96.9631 186.092 96.9631C186.636 96.9631 187.13 96.8935 187.574 96.7543C188.025 96.6151 188.419 96.4129 188.757 96.1477C189.102 95.8759 189.384 95.5478 189.602 95.1634C189.828 94.7723 189.983 94.3314 190.07 93.8409L195.041 93.8707C194.955 94.7723 194.693 95.6605 194.256 96.5355C193.825 97.4105 193.232 98.2093 192.476 98.9318C191.72 99.6477 190.799 100.218 189.712 100.642C188.631 101.066 187.392 101.278 185.993 101.278C184.15 101.278 182.5 100.874 181.041 100.065C179.589 99.25 178.443 98.0634 177.601 96.5057C176.759 94.9479 176.338 93.0521 176.338 90.8182C176.338 88.5777 176.766 86.6785 177.621 85.1207C178.476 83.563 179.633 82.3797 181.091 81.571C182.549 80.7623 184.183 80.358 185.993 80.358C187.226 80.358 188.366 80.5303 189.413 80.875C190.461 81.2131 191.382 81.7102 192.178 82.3665C192.973 83.0161 193.619 83.8149 194.116 84.7628C194.614 85.7107 194.922 86.7945 195.041 88.0142ZM202.72 80.6364V101H197.858V80.6364H202.72ZM212.944 101.288C211.34 101.288 209.961 100.96 208.808 100.304C207.661 99.6411 206.776 98.7197 206.153 97.5398C205.536 96.3532 205.228 94.9777 205.228 93.4134C205.228 91.8423 205.536 90.4669 206.153 89.2869C206.776 88.1004 207.661 87.179 208.808 86.5227C209.961 85.8598 211.34 85.5284 212.944 85.5284C214.548 85.5284 215.924 85.8598 217.07 86.5227C218.224 87.179 219.109 88.1004 219.725 89.2869C220.348 90.4669 220.66 91.8423 220.66 93.4134C220.66 94.9777 220.348 96.3532 219.725 97.5398C219.109 98.7197 218.224 99.6411 217.07 100.304C215.924 100.96 214.548 101.288 212.944 101.288ZM212.974 97.6193C213.557 97.6193 214.051 97.4403 214.455 97.0824C214.86 96.7244 215.168 96.2273 215.38 95.5909C215.599 94.9545 215.708 94.2187 215.708 93.3835C215.708 92.535 215.599 91.7926 215.38 91.1562C215.168 90.5199 214.86 90.0227 214.455 89.6648C214.051 89.3068 213.557 89.1278 212.974 89.1278C212.371 89.1278 211.86 89.3068 211.442 89.6648C211.031 90.0227 210.717 90.5199 210.498 91.1562C210.286 91.7926 210.18 92.535 210.18 93.3835C210.18 94.2187 210.286 94.9545 210.498 95.5909C210.717 96.2273 211.031 96.7244 211.442 97.0824C211.86 97.4403 212.371 97.6193 212.974 97.6193ZM228.013 92.2898V101H223.151V85.7273H227.774V88.5312H227.943C228.281 87.5966 228.858 86.8641 229.673 86.3338C230.489 85.7969 231.46 85.5284 232.587 85.5284C233.661 85.5284 234.592 85.7704 235.381 86.2543C236.176 86.7315 236.793 87.401 237.23 88.2628C237.674 89.1179 237.893 90.1188 237.886 91.2656V101H233.024V92.2202C233.031 91.3717 232.815 90.7088 232.378 90.2315C231.947 89.7543 231.347 89.5156 230.578 89.5156C230.068 89.5156 229.617 89.6283 229.226 89.8537C228.841 90.0724 228.543 90.3873 228.331 90.7983C228.125 91.2093 228.019 91.7064 228.013 92.2898ZM248.036 101.288C246.438 101.288 245.06 100.973 243.9 100.344C242.746 99.7074 241.858 98.8026 241.235 97.6293C240.618 96.4493 240.31 95.0473 240.31 93.4233C240.31 91.8456 240.622 90.4669 241.245 89.2869C241.868 88.1004 242.746 87.179 243.88 86.5227C245.013 85.8598 246.349 85.5284 247.887 85.5284C248.974 85.5284 249.968 85.6974 250.87 86.0355C251.771 86.3736 252.55 86.8741 253.206 87.5369C253.863 88.1998 254.373 89.0185 254.738 89.9929C255.102 90.9607 255.284 92.071 255.284 93.3239V94.5369H242.01V91.7131H250.76C250.754 91.196 250.631 90.7353 250.392 90.331C250.154 89.9266 249.826 89.6117 249.408 89.3864C248.997 89.1544 248.523 89.0384 247.986 89.0384C247.443 89.0384 246.955 89.161 246.525 89.4062C246.094 89.6449 245.752 89.973 245.5 90.3906C245.248 90.8016 245.116 91.2689 245.103 91.7926V94.6662C245.103 95.2893 245.225 95.8362 245.471 96.3068C245.716 96.7708 246.064 97.1321 246.515 97.3906C246.965 97.6491 247.502 97.7784 248.125 97.7784C248.556 97.7784 248.947 97.7187 249.299 97.5994C249.65 97.4801 249.952 97.3045 250.203 97.0724C250.455 96.8404 250.644 96.5554 250.77 96.2173L255.235 96.3466C255.049 97.3475 254.641 98.2192 254.012 98.9616C253.389 99.6974 252.57 100.271 251.556 100.682C250.542 101.086 249.368 101.288 248.036 101.288Z" fill="white"/>
<path d="M163.812 33.2609H152.92V50.2029H163.812M204.957 33.2609H194.065V50.2029H204.957M201.326 41.7319H194.065M160.181 41.7319H152.92M214.638 50.2029V33.2609L227.949 50.2029V33.2609M93.6232 46.2094L106.935 55.0435M93.6232 46.2094V37.2544M93.6232 46.2094L106.935 37.2544M106.935 55.0435L120.246 46.2094M106.935 55.0435V46.2094M120.246 46.2094V37.2544M120.246 46.2094L106.935 37.2544M120.246 37.2544L106.935 28.4203M120.246 37.2544L106.935 46.0884L93.6232 37.2544M106.935 28.4203L93.6232 37.2544M106.935 28.4203V37.2544M173.493 42.942H180.754C183.416 42.942 185.594 40.7638 185.594 38.1015C185.594 35.4391 183.416 33.2609 180.754 33.2609H173.493V50.2029M85.1522 35.6812C83.579 34.108 81.5217 33.2609 79.1014 33.2609C74.2609 33.2609 70.6304 36.8913 70.6304 41.7319C70.6304 46.5725 74.2609 50.2029 79.1014 50.2029C81.5217 50.2029 83.579 49.2348 85.1522 47.7826M144.449 41.7319C144.449 46.5725 140.819 50.2029 135.978 50.2029H129.928V33.2609H135.978C140.819 33.2609 144.449 36.8913 144.449 41.7319Z" stroke="white" stroke-width="3" stroke-linecap="round" stroke-linejoin="round"/>
</svg>
