<svg width="300" height="200" viewBox="50 0 200 200" fill="none" xmlns="http://www.w3.org/2000/svg">
<rect width="300" height="200" fill="black"/>
<path d="M39.3764 93.9844H33.777C33.6747 93.2599 33.4659 92.6165 33.1506 92.054C32.8352 91.483 32.4304 90.9972 31.9361 90.5966C31.4418 90.196 30.8707 89.8892 30.223 89.6761C29.5838 89.4631 28.8892 89.3565 28.1392 89.3565C26.7841 89.3565 25.6037 89.6932 24.598 90.3665C23.5923 91.0312 22.8125 92.0028 22.2585 93.2812C21.7045 94.5511 21.4276 96.0937 21.4276 97.9091C21.4276 99.7756 21.7045 101.344 22.2585 102.614C22.821 103.884 23.6051 104.842 24.6108 105.49C25.6165 106.138 26.7798 106.462 28.1009 106.462C28.8423 106.462 29.5284 106.364 30.1591 106.168C30.7983 105.972 31.3651 105.686 31.8594 105.311C32.3537 104.928 32.7628 104.463 33.0866 103.918C33.419 103.372 33.6491 102.75 33.777 102.051L39.3764 102.077C39.2315 103.278 38.8693 104.438 38.2898 105.554C37.7188 106.662 36.9474 107.655 35.9759 108.533C35.0128 109.402 33.8622 110.092 32.5241 110.604C31.1946 111.107 29.6903 111.358 28.0114 111.358C25.6761 111.358 23.5881 110.83 21.7472 109.773C19.9148 108.716 18.4659 107.186 17.4006 105.183C16.3438 103.18 15.8153 100.756 15.8153 97.9091C15.8153 95.054 16.3523 92.625 17.4261 90.6222C18.5 88.6193 19.9574 87.0937 21.7983 86.0455C23.6392 84.9886 25.7102 84.4602 28.0114 84.4602C29.5284 84.4602 30.9347 84.6733 32.2301 85.0994C33.5341 85.5256 34.6889 86.1477 35.6946 86.9659C36.7003 87.7756 37.5185 88.7685 38.1491 89.9446C38.7884 91.1207 39.1974 92.4673 39.3764 93.9844ZM52.1158 111.384C50.13 111.384 48.4126 110.962 46.9638 110.118C45.5234 109.266 44.4112 108.081 43.6271 106.564C42.843 105.038 42.451 103.27 42.451 101.259C42.451 99.2301 42.843 97.4574 43.6271 95.9403C44.4112 94.4148 45.5234 93.2301 46.9638 92.3864C48.4126 91.5341 50.13 91.108 52.1158 91.108C54.1016 91.108 55.8146 91.5341 57.255 92.3864C58.7038 93.2301 59.8203 94.4148 60.6044 95.9403C61.3885 97.4574 61.7805 99.2301 61.7805 101.259C61.7805 103.27 61.3885 105.038 60.6044 106.564C59.8203 108.081 58.7038 109.266 57.255 110.118C55.8146 110.962 54.1016 111.384 52.1158 111.384ZM52.1413 107.165C53.0447 107.165 53.799 106.909 54.4041 106.398C55.0092 105.878 55.4652 105.17 55.772 104.276C56.0874 103.381 56.245 102.362 56.245 101.22C56.245 100.078 56.0874 99.0597 55.772 98.1648C55.4652 97.2699 55.0092 96.5625 54.4041 96.0426C53.799 95.5227 53.0447 95.2628 52.1413 95.2628C51.2294 95.2628 50.4624 95.5227 49.8402 96.0426C49.2266 96.5625 48.7621 97.2699 48.4467 98.1648C48.1399 99.0597 47.9865 100.078 47.9865 101.22C47.9865 102.362 48.1399 103.381 48.4467 104.276C48.7621 105.17 49.2266 105.878 49.8402 106.398C50.4624 106.909 51.2294 107.165 52.1413 107.165ZM72.5575 111.32C71.0661 111.32 69.7152 110.936 68.505 110.169C67.3033 109.393 66.3487 108.256 65.6413 106.756C64.9425 105.247 64.593 103.398 64.593 101.207C64.593 98.9574 64.9553 97.0866 65.6797 95.5952C66.4041 94.0952 67.3672 92.9744 68.5689 92.233C69.7791 91.483 71.1044 91.108 72.5447 91.108C73.6442 91.108 74.5604 91.2955 75.2933 91.6705C76.0348 92.0369 76.6314 92.4972 77.0831 93.0511C77.5433 93.5966 77.8928 94.1335 78.1314 94.6619H78.2976V84.8182H83.7308V111H78.3615V107.855H78.1314C77.8757 108.401 77.5135 108.942 77.0447 109.479C76.5845 110.007 75.9837 110.446 75.2422 110.795C74.5092 111.145 73.6143 111.32 72.5575 111.32ZM74.2834 106.986C75.1612 106.986 75.9027 106.747 76.5078 106.27C77.1214 105.784 77.5902 105.107 77.9141 104.237C78.2464 103.368 78.4126 102.349 78.4126 101.182C78.4126 100.014 78.2507 99 77.9268 98.1392C77.603 97.2784 77.1342 96.6136 76.5206 96.1449C75.907 95.6761 75.1612 95.4418 74.2834 95.4418C73.3885 95.4418 72.6342 95.6847 72.0206 96.1705C71.407 96.6562 70.9425 97.3295 70.6271 98.1903C70.3118 99.0511 70.1541 100.048 70.1541 101.182C70.1541 102.324 70.3118 103.334 70.6271 104.212C70.951 105.081 71.4155 105.763 72.0206 106.257C72.6342 106.743 73.3885 106.986 74.2834 106.986ZM97.1573 111.384C95.1374 111.384 93.3988 110.974 91.9414 110.156C90.4925 109.33 89.3761 108.162 88.592 106.653C87.8079 105.136 87.4158 103.342 87.4158 101.271C87.4158 99.2514 87.8079 97.4787 88.592 95.9531C89.3761 94.4276 90.4798 93.2386 91.9031 92.3864C93.3349 91.5341 95.0138 91.108 96.94 91.108C98.2354 91.108 99.4414 91.3168 100.558 91.7344C101.683 92.1435 102.663 92.7614 103.498 93.5881C104.342 94.4148 104.998 95.4545 105.467 96.7074C105.936 97.9517 106.17 99.4091 106.17 101.08V102.575H89.5891V99.2003H101.044C101.044 98.4162 100.873 97.7216 100.532 97.1165C100.191 96.5114 99.7184 96.0384 99.1133 95.6974C98.5167 95.348 97.8221 95.1733 97.0295 95.1733C96.2028 95.1733 95.4698 95.3651 94.8306 95.7486C94.1999 96.1236 93.7056 96.6307 93.3477 97.2699C92.9897 97.9006 92.8065 98.6037 92.7979 99.3793V102.588C92.7979 103.56 92.9769 104.399 93.3349 105.107C93.7013 105.814 94.217 106.359 94.8817 106.743C95.5465 107.126 96.3349 107.318 97.2468 107.318C97.8519 107.318 98.4059 107.233 98.9087 107.062C99.4116 106.892 99.842 106.636 100.2 106.295C100.558 105.955 100.831 105.537 101.018 105.043L106.055 105.375C105.799 106.585 105.275 107.642 104.483 108.545C103.699 109.44 102.684 110.139 101.44 110.642C100.204 111.136 98.7766 111.384 97.1573 111.384ZM109.826 111V84.8182H120.156C122.142 84.8182 123.833 85.1974 125.231 85.956C126.629 86.706 127.694 87.75 128.427 89.0881C129.169 90.4176 129.539 91.9517 129.539 93.6903C129.539 95.429 129.164 96.9631 128.414 98.2926C127.664 99.6222 126.578 100.658 125.154 101.399C123.74 102.141 122.027 102.511 120.015 102.511H113.431V98.0753H119.12C120.186 98.0753 121.064 97.892 121.754 97.5256C122.453 97.1506 122.973 96.6349 123.314 95.9787C123.663 95.3139 123.838 94.5511 123.838 93.6903C123.838 92.821 123.663 92.0625 123.314 91.4148C122.973 90.7585 122.453 90.2514 121.754 89.8935C121.055 89.527 120.169 89.3438 119.095 89.3438H115.362V111H109.826ZM141.665 111.384C139.645 111.384 137.907 110.974 136.449 110.156C135 109.33 133.884 108.162 133.1 106.653C132.316 105.136 131.924 103.342 131.924 101.271C131.924 99.2514 132.316 97.4787 133.1 95.9531C133.884 94.4276 134.988 93.2386 136.411 92.3864C137.843 91.5341 139.522 91.108 141.448 91.108C142.743 91.108 143.949 91.3168 145.066 91.7344C146.191 92.1435 147.171 92.7614 148.006 93.5881C148.85 94.4148 149.506 95.4545 149.975 96.7074C150.444 97.9517 150.678 99.4091 150.678 101.08V102.575H134.097V99.2003H145.551C145.551 98.4162 145.381 97.7216 145.04 97.1165C144.699 96.5114 144.226 96.0384 143.621 95.6974C143.025 95.348 142.33 95.1733 141.537 95.1733C140.711 95.1733 139.978 95.3651 139.338 95.7486C138.708 96.1236 138.213 96.6307 137.855 97.2699C137.498 97.9006 137.314 98.6037 137.306 99.3793V102.588C137.306 103.56 137.485 104.399 137.843 105.107C138.209 105.814 138.725 106.359 139.39 106.743C140.054 107.126 140.843 107.318 141.755 107.318C142.36 107.318 142.914 107.233 143.417 107.062C143.919 106.892 144.35 106.636 144.708 106.295C145.066 105.955 145.338 105.537 145.526 105.043L150.563 105.375C150.307 106.585 149.783 107.642 148.99 108.545C148.206 109.44 147.192 110.139 145.948 110.642C144.712 111.136 143.284 111.384 141.665 111.384ZM159.678 99.6477V111H154.232V91.3636H159.422V94.8281H159.652C160.087 93.6861 160.816 92.7827 161.838 92.1179C162.861 91.4446 164.101 91.108 165.559 91.108C166.922 91.108 168.111 91.4062 169.125 92.0028C170.14 92.5994 170.928 93.4517 171.49 94.5597C172.053 95.6591 172.334 96.9716 172.334 98.4972V111H166.888V99.4688C166.897 98.267 166.59 97.3295 165.968 96.6562C165.346 95.9744 164.489 95.6335 163.398 95.6335C162.665 95.6335 162.017 95.7912 161.455 96.1065C160.901 96.4219 160.466 96.8821 160.151 97.4872C159.844 98.0838 159.686 98.804 159.678 99.6477ZM208.162 93.9844H202.562C202.46 93.2599 202.251 92.6165 201.936 92.054C201.62 91.483 201.216 90.9972 200.721 90.5966C200.227 90.196 199.656 89.8892 199.008 89.6761C198.369 89.4631 197.674 89.3565 196.924 89.3565C195.569 89.3565 194.389 89.6932 193.383 90.3665C192.377 91.0312 191.598 92.0028 191.044 93.2812C190.49 94.5511 190.213 96.0937 190.213 97.9091C190.213 99.7756 190.49 101.344 191.044 102.614C191.606 103.884 192.39 104.842 193.396 105.49C194.402 106.138 195.565 106.462 196.886 106.462C197.627 106.462 198.314 106.364 198.944 106.168C199.583 105.972 200.15 105.686 200.645 105.311C201.139 104.928 201.548 104.463 201.872 103.918C202.204 103.372 202.434 102.75 202.562 102.051L208.162 102.077C208.017 103.278 207.654 104.438 207.075 105.554C206.504 106.662 205.733 107.655 204.761 108.533C203.798 109.402 202.647 110.092 201.309 110.604C199.98 111.107 198.475 111.358 196.797 111.358C194.461 111.358 192.373 110.83 190.532 109.773C188.7 108.716 187.251 107.186 186.186 105.183C185.129 103.18 184.6 100.756 184.6 97.9091C184.6 95.054 185.137 92.625 186.211 90.6222C187.285 88.6193 188.743 87.0937 190.583 86.0455C192.424 84.9886 194.495 84.4602 196.797 84.4602C198.314 84.4602 199.72 84.6733 201.015 85.0994C202.319 85.5256 203.474 86.1477 204.48 86.9659C205.485 87.7756 206.304 88.7685 206.934 89.9446C207.574 91.1207 207.983 92.4673 208.162 93.9844ZM217.475 84.8182V111H212.029V84.8182H217.475ZM230.71 111.384C228.724 111.384 227.006 110.962 225.558 110.118C224.117 109.266 223.005 108.081 222.221 106.564C221.437 105.038 221.045 103.27 221.045 101.259C221.045 99.2301 221.437 97.4574 222.221 95.9403C223.005 94.4148 224.117 93.2301 225.558 92.3864C227.006 91.5341 228.724 91.108 230.71 91.108C232.695 91.108 234.408 91.5341 235.849 92.3864C237.298 93.2301 238.414 94.4148 239.198 95.9403C239.982 97.4574 240.374 99.2301 240.374 101.259C240.374 103.27 239.982 105.038 239.198 106.564C238.414 108.081 237.298 109.266 235.849 110.118C234.408 110.962 232.695 111.384 230.71 111.384ZM230.735 107.165C231.638 107.165 232.393 106.909 232.998 106.398C233.603 105.878 234.059 105.17 234.366 104.276C234.681 103.381 234.839 102.362 234.839 101.22C234.839 100.078 234.681 99.0597 234.366 98.1648C234.059 97.2699 233.603 96.5625 232.998 96.0426C232.393 95.5227 231.638 95.2628 230.735 95.2628C229.823 95.2628 229.056 95.5227 228.434 96.0426C227.82 96.5625 227.356 97.2699 227.04 98.1648C226.734 99.0597 226.58 100.078 226.58 101.22C226.58 102.362 226.734 103.381 227.04 104.276C227.356 105.17 227.82 105.878 228.434 106.398C229.056 106.909 229.823 107.165 230.735 107.165ZM249.362 99.6477V111H243.915V91.3636H249.106V94.8281H249.336C249.771 93.6861 250.499 92.7827 251.522 92.1179C252.545 91.4446 253.785 91.108 255.242 91.108C256.606 91.108 257.795 91.4062 258.809 92.0028C259.823 92.5994 260.612 93.4517 261.174 94.5597C261.737 95.6591 262.018 96.9716 262.018 98.4972V111H256.572V99.4688C256.58 98.267 256.273 97.3295 255.651 96.6562C255.029 95.9744 254.173 95.6335 253.082 95.6335C252.349 95.6335 251.701 95.7912 251.138 96.1065C250.585 96.4219 250.15 96.8821 249.835 97.4872C249.528 98.0838 249.37 98.804 249.362 99.6477ZM275.259 111.384C273.239 111.384 271.5 110.974 270.043 110.156C268.594 109.33 267.478 108.162 266.694 106.653C265.909 105.136 265.517 103.342 265.517 101.271C265.517 99.2514 265.909 97.4787 266.694 95.9531C267.478 94.4276 268.581 93.2386 270.005 92.3864C271.436 91.5341 273.115 91.108 275.042 91.108C276.337 91.108 277.543 91.3168 278.659 91.7344C279.784 92.1435 280.765 92.7614 281.6 93.5881C282.444 94.4148 283.1 95.4545 283.569 96.7074C284.037 97.9517 284.272 99.4091 284.272 101.08V102.575H267.691V99.2003H279.145C279.145 98.4162 278.975 97.7216 278.634 97.1165C278.293 96.5114 277.82 96.0384 277.215 95.6974C276.618 95.348 275.924 95.1733 275.131 95.1733C274.304 95.1733 273.571 95.3651 272.932 95.7486C272.301 96.1236 271.807 96.6307 271.449 97.2699C271.091 97.9006 270.908 98.6037 270.9 99.3793V102.588C270.9 103.56 271.078 104.399 271.436 105.107C271.803 105.814 272.319 106.359 272.983 106.743C273.648 107.126 274.436 107.318 275.348 107.318C275.953 107.318 276.507 107.233 277.01 107.062C277.513 106.892 277.944 106.636 278.301 106.295C278.659 105.955 278.932 105.537 279.12 105.043L284.157 105.375C283.901 106.585 283.377 107.642 282.584 108.545C281.8 109.44 280.786 110.139 279.542 110.642C278.306 111.136 276.878 111.384 275.259 111.384Z" fill="white"/>
<path d="M74.3486 148.97C74.3486 147.177 72.8495 145.723 71 145.723C69.1507 145.723 67.6514 147.177 67.6514 148.97C67.6514 150.763 69.1507 152.217 71 152.217C72.8495 152.217 74.3486 150.763 74.3486 148.97Z" fill="#53C1DE"/>
<path fill-rule="evenodd" clip-rule="evenodd" d="M81.8755 142.942C82.5826 140.156 83.4715 134.989 80.338 133.238C77.2192 131.494 73.1605 134.836 71.0174 136.841C68.8805 134.856 64.7079 131.528 61.577 133.285C58.4594 135.035 59.4208 140.116 60.1436 142.92C57.2354 143.721 52.25 145.446 52.25 148.97C52.25 152.484 57.2302 154.361 60.1212 155.161C59.3957 157.98 58.4824 162.989 61.6041 164.735C64.7466 166.491 68.9063 163.243 71.0692 161.215C73.2261 163.233 77.2458 166.503 80.3652 164.752C83.4946 162.995 82.6795 157.898 81.9566 155.078C84.7591 154.276 89.75 152.44 89.75 148.97C89.75 145.479 84.7379 143.74 81.8755 142.942ZM81.5203 153.584C81.0456 152.127 80.405 150.578 79.6214 148.978C80.3694 147.415 80.9851 145.886 81.4464 144.439C83.5448 145.028 88.1481 146.377 88.1481 148.97C88.1481 151.587 83.7308 152.948 81.5203 153.584ZM79.5624 163.408C77.2351 164.714 73.7777 161.587 72.1848 160.101C73.2415 158.981 74.2975 157.678 75.3281 156.231C77.1411 156.075 78.8538 155.82 80.407 155.472C80.9158 157.467 81.9003 162.095 79.5624 163.408ZM62.4045 163.389C60.0768 162.088 61.1407 157.618 61.6745 155.542C63.2104 155.871 64.9107 156.108 66.728 156.251C67.7654 157.667 68.852 158.968 69.947 160.107C68.5941 161.376 64.7431 164.696 62.4045 163.389ZM53.8519 148.97C53.8519 146.342 58.4276 145.004 60.5738 144.416C61.0431 145.896 61.6587 147.443 62.4015 149.008C61.6491 150.596 61.0247 152.168 60.5511 153.665C58.5046 153.097 53.8519 151.599 53.8519 148.97ZM62.3796 134.629C64.7169 133.318 68.3434 136.512 69.8949 137.95C68.8055 139.084 67.7289 140.376 66.7004 141.783C64.9368 141.942 63.2484 142.196 61.6964 142.537C61.1141 140.276 60.0449 135.94 62.3796 134.629ZM76.4741 143.471C77.6707 143.618 78.817 143.812 79.8934 144.051C79.5703 145.055 79.1675 146.105 78.6931 147.182C78.0055 145.917 77.2674 144.677 76.4741 143.471ZM71.0179 139.06C71.7568 139.836 72.4968 140.703 73.2247 141.643C71.7482 141.575 70.2691 141.575 68.7925 141.642C69.5211 140.711 70.2674 139.845 71.0179 139.06ZM63.3206 147.181C62.8541 146.108 62.455 145.053 62.129 144.034C63.199 143.802 64.34 143.612 65.5287 143.468C64.7333 144.671 63.9964 145.911 63.3206 147.181ZM65.5629 154.582C64.3348 154.449 63.1766 154.269 62.107 154.043C62.438 153.007 62.846 151.929 63.3225 150.834C64.0075 152.117 64.7556 153.368 65.5629 154.582ZM71.0622 158.989C70.303 158.195 69.5457 157.316 68.806 156.371C70.291 156.428 71.7789 156.428 73.2637 156.364C72.5335 157.326 71.7961 158.206 71.0622 158.989ZM78.7084 150.778C79.2096 151.885 79.6322 152.957 79.9677 153.976C78.8803 154.217 77.7065 154.41 76.4696 154.554C77.2688 153.326 78.0186 152.067 78.7084 150.778ZM74.4341 154.743C72.1627 154.9 69.877 154.898 67.6048 154.755C66.3136 152.927 65.1643 151.004 64.1722 149.007C65.1594 147.015 66.3004 145.096 67.5855 143.27C69.8594 143.103 72.1473 143.103 74.4211 143.271C75.6951 145.096 76.8344 147.011 77.8446 148.985C76.8464 150.977 75.6994 152.9 74.4341 154.743ZM79.5379 134.583C81.8757 135.891 80.8351 140.534 80.3244 142.553C78.7687 142.205 77.0792 141.946 75.3104 141.785C74.2799 140.363 73.2123 139.069 72.1405 137.949C73.7119 136.481 77.2226 133.289 79.5379 134.583Z" fill="#53C1DE"/>
<rect x="103.5" y="131.5" width="35" height="35" fill="#FFCA28"/>
<path d="M124.75 160.61L127.327 158.904C127.529 159.539 128.808 161.046 130.423 161.046C132.038 161.046 132.788 160.163 132.788 159.579C132.788 157.985 131.139 157.423 130.347 157.153C130.218 157.109 130.111 157.072 130.038 157.041C130.001 157.024 129.945 157.003 129.872 156.975C128.991 156.639 125.74 155.397 125.74 151.796C125.74 147.831 129.567 147.375 130.433 147.375C130.999 147.375 133.721 147.444 135.077 149.992L132.577 151.737C132.029 150.627 131.118 150.26 130.558 150.26C129.173 150.26 128.885 151.275 128.885 151.737C128.885 153.033 130.389 153.615 131.659 154.105C131.991 154.234 132.308 154.356 132.577 154.483C133.962 155.137 136 156.208 136 159.579C136 161.267 134.584 164 131.019 164C126.231 164 124.962 161.125 124.75 160.61Z" fill="#3E3E3E"/>
<path d="M112.25 160.948L114.936 159.244C115.146 159.878 115.964 161.047 117.151 161.047C118.337 161.047 118.945 159.829 118.945 159.244V147.75H122.248V159.244C122.301 160.829 121.422 164 117.542 164C113.974 164 112.491 161.88 112.25 160.948Z" fill="#3E3E3E"/>
<path d="M158.5 164L156 132.75H186L183.5 164L171 167.75L158.5 164Z" fill="#1172B8"/>
<path d="M183.5 135.25H171V165.875L181 162.75L183.5 135.25Z" fill="#33AADD"/>
<path d="M175.375 150.875H162.875L162.25 146.5L172.25 143.375H162.25L161.625 139.625H181L180.375 144L172.25 147.125H179.75L178.5 159L171 161.5L163.5 159L162.875 152.75H166.625L167.25 155.875L171 157.125L174.75 155.875L175.375 150.875Z" fill="white"/>
<path d="M208.5 164L206 132.75H236L233.5 164L221 167.75L208.5 164Z" fill="#E44D26"/>
<path d="M233.5 135.25H221V165.875L231 162.75L233.5 135.25Z" fill="#F16529"/>
<path d="M212.875 150.875L211.625 139H231L230.375 142.75H215.375L216 147.125H229.75L228.5 159L221 161.5L213.5 159L212.875 152.75H216.625L217.25 155.875L221 157.125L224.75 155.875L225.375 150.875H212.875Z" fill="white"/>
<path d="M165.145 39.2609H152.754V58.5362H165.145M211.957 39.2609H199.565V58.5362H211.957M207.826 48.8985H199.565M161.015 48.8985H152.754M222.971 58.5362V39.2609L238.116 58.5362V39.2609M85.2899 53.9927L100.435 64.0435M85.2899 53.9927V43.8043M85.2899 53.9927L100.435 43.8043M100.435 64.0435L115.58 53.9927M100.435 64.0435V53.9927M115.58 53.9927V43.8043M115.58 53.9927L100.435 43.8043M115.58 43.8043L100.435 33.7536M115.58 43.8043L100.435 53.8551L85.2899 43.8043M100.435 33.7536L85.2899 43.8043M100.435 33.7536V43.8043M176.159 50.2754H184.42C187.449 50.2754 189.928 47.7971 189.928 44.7681C189.928 41.7391 187.449 39.2609 184.42 39.2609H176.159V58.5362M75.6522 42.0145C73.8623 40.2246 71.5217 39.2609 68.7681 39.2609C63.2609 39.2609 59.1304 43.3913 59.1304 48.8985C59.1304 54.4058 63.2609 58.5362 68.7681 58.5362C71.5217 58.5362 73.8623 57.4348 75.6522 55.7826M143.116 48.8985C143.116 54.4058 138.986 58.5362 133.478 58.5362H126.594V39.2609H133.478C138.986 39.2609 143.116 43.3913 143.116 48.8985Z" stroke="white" stroke-width="3" stroke-linecap="round" stroke-linejoin="round"/>
</svg>
