<svg width="300" height="180" viewBox="0 0 300 180" fill="none" xmlns="http://www.w3.org/2000/svg">
<rect width="300" height="180" fill="#B8354F"/>
<path d="M92.5115 130.977C92.5115 129.633 91.3871 128.542 90 128.542C88.613 128.542 87.4885 129.633 87.4885 130.977C87.4885 132.322 88.613 133.413 90 133.413C91.3871 133.413 92.5115 132.322 92.5115 130.977Z" fill="#53C1DE"/>
<path fill-rule="evenodd" clip-rule="evenodd" d="M98.1566 126.457C98.687 124.367 99.3537 120.492 97.0035 119.178C94.6644 117.87 91.6204 120.377 90.0131 121.881C88.4104 120.392 85.281 117.896 82.9328 119.214C80.5945 120.526 81.3156 124.337 81.8577 126.44C79.6765 127.04 75.9375 128.334 75.9375 130.977C75.9375 133.613 79.6727 135.021 81.8409 135.621C81.2968 137.735 80.6118 141.491 82.9531 142.801C85.3099 144.119 88.4297 141.682 90.0519 140.161C91.6696 141.675 94.6843 144.127 97.0239 142.814C99.3709 141.497 98.7596 137.673 98.2175 135.559C100.319 134.957 104.062 133.58 104.062 130.977C104.062 128.36 100.303 127.055 98.1566 126.457ZM97.8902 134.438C97.5342 133.345 97.0538 132.183 96.466 130.983C97.027 129.811 97.4888 128.665 97.8348 127.579C99.4086 128.021 102.861 129.032 102.861 130.977C102.861 132.941 99.5481 133.961 97.8902 134.438ZM96.4218 141.806C94.6763 142.785 92.0833 140.44 90.8886 139.326C91.6811 138.485 92.4731 137.508 93.2461 136.423C94.6058 136.306 95.8903 136.115 97.0553 135.854C97.4368 137.35 98.1752 140.822 96.4218 141.806ZM83.5534 141.792C81.8076 140.816 82.6055 137.464 83.0058 135.906C84.1578 136.153 85.433 136.331 86.796 136.438C87.5741 137.5 88.389 138.476 89.2102 139.33C88.1956 140.282 85.3074 142.772 83.5534 141.792ZM77.1389 130.977C77.1389 129.007 80.5707 128.003 82.1804 127.562C82.5324 128.672 82.994 129.832 83.5512 131.006C82.9868 132.197 82.5185 133.376 82.1633 134.499C80.6285 134.073 77.1389 132.949 77.1389 130.977ZM83.5347 120.222C85.2877 119.238 88.0075 121.634 89.1711 122.713C88.3541 123.563 87.5467 124.532 86.7753 125.587C85.4526 125.706 84.1863 125.897 83.0223 126.153C82.5855 124.457 81.7837 121.205 83.5347 120.222ZM94.1056 126.854C95.003 126.963 95.8627 127.109 96.67 127.288C96.4277 128.041 96.1256 128.829 95.7699 129.636C95.2541 128.687 94.7005 127.758 94.1056 126.854ZM90.0134 123.545C90.5676 124.127 91.1226 124.777 91.6685 125.482C90.5611 125.432 89.4519 125.431 88.3444 125.482C88.8908 124.783 89.4506 124.134 90.0134 123.545ZM84.2405 129.635C83.8906 128.831 83.5912 128.04 83.3468 127.276C84.1492 127.102 85.005 126.959 85.8966 126.851C85.3 127.754 84.7473 128.683 84.2405 129.635ZM85.9222 135.187C85.0011 135.087 84.1324 134.952 83.3302 134.783C83.5785 134.005 83.8845 133.197 84.2418 132.375C84.7557 133.337 85.3167 134.276 85.9222 135.187ZM90.0467 138.492C89.4772 137.896 88.9093 137.237 88.3545 136.529C89.4683 136.571 90.5842 136.571 91.6978 136.523C91.1501 137.245 90.5971 137.904 90.0467 138.492ZM95.7813 132.333C96.1572 133.164 96.4741 133.968 96.7258 134.732C95.9103 134.913 95.0299 135.058 94.1022 135.166C94.7016 134.244 95.2639 133.3 95.7813 132.333ZM92.5756 135.307C90.872 135.425 89.1577 135.424 87.4536 135.317C86.4852 133.945 85.6232 132.503 84.8791 131.005C85.6196 129.511 86.4753 128.072 87.4391 126.702C89.1446 126.577 90.8605 126.577 92.5658 126.703C93.5213 128.072 94.3758 129.508 95.1334 130.989C94.3848 132.482 93.5246 133.925 92.5756 135.307ZM96.4034 120.187C98.1568 121.168 97.3763 124.651 96.9933 126.165C95.8265 125.904 94.5594 125.71 93.2328 125.589C92.4599 124.522 91.6592 123.552 90.8554 122.712C92.0339 121.61 94.667 119.216 96.4034 120.187Z" fill="#53C1DE"/>
<rect x="116.875" y="117.875" width="26.25" height="26.25" fill="#FFCA28"/>
<path d="M132.812 139.707L134.745 138.428C134.897 138.904 135.856 140.034 137.067 140.034C138.279 140.034 138.841 139.373 138.841 138.934C138.841 137.738 137.604 137.317 137.01 137.114C136.913 137.081 136.833 137.054 136.779 137.031C136.751 137.018 136.709 137.002 136.654 136.981C135.993 136.729 133.555 135.797 133.555 133.097C133.555 130.123 136.425 129.781 137.075 129.781C137.499 129.781 139.541 129.833 140.558 131.744L138.683 133.053C138.272 132.22 137.589 131.945 137.168 131.945C136.13 131.945 135.913 132.706 135.913 133.053C135.913 134.025 137.042 134.461 137.994 134.829C138.244 134.925 138.481 135.017 138.683 135.112C139.721 135.603 141.25 136.406 141.25 138.934C141.25 140.2 140.188 142.25 137.514 142.25C133.923 142.25 132.971 140.094 132.812 139.707Z" fill="#3E3E3E"/>
<path d="M123.438 139.961L125.452 138.683C125.61 139.159 126.223 140.035 127.113 140.035C128.003 140.035 128.458 139.121 128.458 138.683V130.062H130.936V138.683C130.976 139.872 130.316 142.25 127.406 142.25C124.73 142.25 123.618 140.66 123.438 139.961Z" fill="#3E3E3E"/>
<path d="M160.625 142.25L158.75 118.812H181.25L179.375 142.25L170 145.062L160.625 142.25Z" fill="#1172B8"/>
<path d="M179.375 120.688H170V143.656L177.5 141.312L179.375 120.688Z" fill="#33AADD"/>
<path d="M173.281 132.406H163.906L163.438 129.125L170.938 126.781H163.438L162.969 123.969H177.5L177.031 127.25L170.938 129.594H176.563L175.625 138.5L170 140.375L164.375 138.5L163.906 133.812H166.719L167.188 136.156L170 137.094L172.813 136.156L173.281 132.406Z" fill="white"/>
<path d="M200.625 142.25L198.75 118.812H221.25L219.375 142.25L210 145.062L200.625 142.25Z" fill="#E44D26"/>
<path d="M219.375 120.688H210V143.656L217.5 141.312L219.375 120.688Z" fill="#F16529"/>
<path d="M203.906 132.406L202.969 123.5H217.5L217.031 126.312H205.781L206.25 129.594H216.562L215.625 138.5L210 140.375L204.375 138.5L203.906 133.812H206.719L207.188 136.156L210 137.094L212.812 136.156L213.281 132.406H203.906Z" fill="white"/>
<path d="M70.4611 48.0142H65.4895C65.4232 47.5038 65.2873 47.0431 65.0819 46.6321C64.8764 46.2211 64.6046 45.8698 64.2665 45.5781C63.9284 45.2865 63.5274 45.0644 63.0634 44.9119C62.606 44.7528 62.0989 44.6733 61.5421 44.6733C60.5544 44.6733 59.7026 44.9152 58.9867 45.3991C58.2774 45.883 57.7305 46.5824 57.3461 47.4972C56.9682 48.4119 56.7793 49.5189 56.7793 50.8182C56.7793 52.1705 56.9715 53.304 57.356 54.2188C57.7471 55.1269 58.294 55.813 58.9966 56.277C59.7059 56.7344 60.5444 56.9631 61.5123 56.9631C62.0558 56.9631 62.5497 56.8935 62.9938 56.7543C63.4445 56.6151 63.839 56.4129 64.177 56.1477C64.5217 55.8759 64.8034 55.5478 65.0222 55.1634C65.2476 54.7723 65.4033 54.3314 65.4895 53.8409L70.4611 53.8707C70.3749 54.7723 70.1131 55.6605 69.6756 56.5355C69.2447 57.4105 68.6515 58.2093 67.8958 58.9318C67.1401 59.6477 66.2187 60.2178 65.1316 60.642C64.0511 61.0663 62.8115 61.2784 61.4128 61.2784C59.57 61.2784 57.9194 60.8741 56.4611 60.0653C55.0094 59.25 53.8626 58.0634 53.0208 56.5057C52.1789 54.9479 51.758 53.0521 51.758 50.8182C51.758 48.5777 52.1855 46.6785 53.0407 45.1207C53.8958 43.563 55.0525 42.3797 56.5108 41.571C57.9692 40.7623 59.6032 40.358 61.4128 40.358C62.6458 40.358 63.7859 40.5303 64.8333 40.875C65.8806 41.2131 66.802 41.7102 67.5975 42.3665C68.3929 43.0161 69.0392 43.8149 69.5364 44.7628C70.0336 45.7107 70.3418 46.7945 70.4611 48.0142ZM78.1397 40.6364V61H73.2775V40.6364H78.1397ZM88.3638 61.2884C86.7596 61.2884 85.3809 60.9602 84.2275 60.304C83.0807 59.6411 82.1957 58.7197 81.5726 57.5398C80.9561 56.3532 80.6479 54.9777 80.6479 53.4134C80.6479 51.8423 80.9561 50.4669 81.5726 49.2869C82.1957 48.1004 83.0807 47.179 84.2275 46.5227C85.3809 45.8598 86.7596 45.5284 88.3638 45.5284C89.968 45.5284 91.3435 45.8598 92.4902 46.5227C93.6436 47.179 94.5286 48.1004 95.1451 49.2869C95.7682 50.4669 96.0797 51.8423 96.0797 53.4134C96.0797 54.9777 95.7682 56.3532 95.1451 57.5398C94.5286 58.7197 93.6436 59.6411 92.4902 60.304C91.3435 60.9602 89.968 61.2884 88.3638 61.2884ZM88.3936 57.6193C88.977 57.6193 89.4708 57.4403 89.8752 57.0824C90.2795 56.7244 90.5878 56.2273 90.7999 55.5909C91.0186 54.9545 91.128 54.2187 91.128 53.3835C91.128 52.535 91.0186 51.7926 90.7999 51.1562C90.5878 50.5199 90.2795 50.0227 89.8752 49.6648C89.4708 49.3068 88.977 49.1278 88.3936 49.1278C87.7904 49.1278 87.28 49.3068 86.8624 49.6648C86.4514 50.0227 86.1365 50.5199 85.9178 51.1562C85.7057 51.7926 85.5996 52.535 85.5996 53.3835C85.5996 54.2187 85.7057 54.9545 85.9178 55.5909C86.1365 56.2273 86.4514 56.7244 86.8624 57.0824C87.28 57.4403 87.7904 57.6193 88.3936 57.6193ZM107.191 45.7273V49.3068H97.5563V45.7273H107.191ZM99.5748 42.0682H104.437V56.1974C104.437 56.4957 104.483 56.7377 104.576 56.9233C104.676 57.1023 104.818 57.2315 105.004 57.3111C105.189 57.384 105.411 57.4205 105.67 57.4205C105.856 57.4205 106.051 57.4039 106.257 57.3707C106.469 57.331 106.628 57.2978 106.734 57.2713L107.47 60.7812C107.238 60.8475 106.91 60.9304 106.485 61.0298C106.068 61.1293 105.567 61.1922 104.984 61.2188C103.844 61.2718 102.866 61.1392 102.051 60.821C101.242 60.4962 100.622 59.9924 100.191 59.3097C99.767 58.6269 99.5615 57.7685 99.5748 56.7344V42.0682ZM114.862 52.2898V61H110V40.6364H114.703V48.5312H114.872C115.217 47.59 115.78 46.8542 116.563 46.3239C117.352 45.7936 118.316 45.5284 119.456 45.5284C120.53 45.5284 121.465 45.767 122.26 46.2443C123.056 46.715 123.672 47.3812 124.11 48.2429C124.554 49.1046 124.772 50.1122 124.766 51.2656V61H119.904V52.2202C119.91 51.3717 119.698 50.7088 119.267 50.2315C118.836 49.7543 118.23 49.5156 117.448 49.5156C116.937 49.5156 116.486 49.6283 116.095 49.8537C115.711 50.0724 115.409 50.3873 115.191 50.7983C114.978 51.2093 114.869 51.7064 114.862 52.2898ZM127.801 61V45.7273H132.663V61H127.801ZM130.237 43.9474C129.554 43.9474 128.968 43.7221 128.477 43.2713C127.987 42.8139 127.741 42.2637 127.741 41.6207C127.741 40.9844 127.987 40.4408 128.477 39.9901C128.968 39.5327 129.554 39.304 130.237 39.304C130.926 39.304 131.513 39.5327 131.997 39.9901C132.488 40.4408 132.733 40.9844 132.733 41.6207C132.733 42.2637 132.488 42.8139 131.997 43.2713C131.513 43.7221 130.926 43.9474 130.237 43.9474ZM140.62 52.2898V61H135.758V45.7273H140.382V48.5312H140.551C140.889 47.5966 141.465 46.8641 142.281 46.3338C143.096 45.7969 144.067 45.5284 145.194 45.5284C146.268 45.5284 147.199 45.7704 147.988 46.2543C148.784 46.7315 149.4 47.401 149.838 48.2628C150.282 49.1179 150.5 50.1188 150.494 51.2656V61H145.632V52.2202C145.638 51.3717 145.423 50.7088 144.985 50.2315C144.554 49.7543 143.954 49.5156 143.186 49.5156C142.675 49.5156 142.224 49.6283 141.833 49.8537C141.449 50.0724 141.151 50.3873 140.938 50.7983C140.733 51.2093 140.627 51.7064 140.62 52.2898ZM160.623 67.0455C159.172 67.0455 157.929 66.8433 156.895 66.4389C155.861 66.0346 155.049 65.4811 154.459 64.7784C153.869 64.0758 153.514 63.2803 153.395 62.392L157.998 62.1335C158.085 62.4451 158.244 62.7169 158.476 62.9489C158.714 63.1809 159.023 63.3598 159.4 63.4858C159.785 63.6117 160.236 63.6747 160.753 63.6747C161.568 63.6747 162.241 63.4759 162.771 63.0781C163.308 62.687 163.577 62.0009 163.577 61.0199V58.3352H163.407C163.215 58.8059 162.924 59.2268 162.532 59.598C162.141 59.9692 161.654 60.2609 161.071 60.473C160.494 60.6851 159.831 60.7912 159.082 60.7912C157.969 60.7912 156.948 60.5327 156.02 60.0156C155.098 59.492 154.359 58.6832 153.802 57.5895C153.252 56.4891 152.977 55.0739 152.977 53.3438C152.977 51.5606 153.262 50.0923 153.832 48.9389C154.402 47.7789 155.148 46.9205 156.069 46.3636C156.997 45.8068 157.995 45.5284 159.062 45.5284C159.864 45.5284 160.55 45.6676 161.121 45.946C161.697 46.2178 162.171 46.5691 162.542 47C162.914 47.4309 163.195 47.8783 163.388 48.3423H163.527V45.7273H168.369V61.0597C168.369 62.3523 168.044 63.4427 167.395 64.331C166.745 65.2192 165.837 65.892 164.67 66.3494C163.504 66.8134 162.155 67.0455 160.623 67.0455ZM160.773 57.2514C161.363 57.2514 161.866 57.0956 162.284 56.7841C162.702 56.4725 163.023 56.0251 163.248 55.4418C163.474 54.8584 163.586 54.1591 163.586 53.3438C163.586 52.5152 163.474 51.8026 163.248 51.206C163.03 50.6027 162.708 50.1387 162.284 49.8139C161.866 49.4891 161.363 49.3267 160.773 49.3267C160.169 49.3267 159.659 49.4924 159.241 49.8239C158.824 50.1553 158.506 50.6226 158.287 51.2259C158.075 51.8224 157.969 52.5284 157.969 53.3438C157.969 54.1591 158.078 54.8584 158.297 55.4418C158.515 56.0251 158.83 56.4725 159.241 56.7841C159.659 57.0956 160.169 57.2514 160.773 57.2514ZM188.492 46.7415C188.425 46.0123 188.13 45.4455 187.607 45.0412C187.09 44.6302 186.351 44.4247 185.389 44.4247C184.753 44.4247 184.223 44.5076 183.798 44.6733C183.374 44.839 183.056 45.0677 182.844 45.3594C182.632 45.6444 182.522 45.9725 182.516 46.3438C182.503 46.6487 182.562 46.9171 182.695 47.1491C182.834 47.3812 183.033 47.5866 183.291 47.7656C183.557 47.938 183.875 48.0904 184.246 48.223C184.617 48.3556 185.035 48.4716 185.499 48.571L187.249 48.9688C188.256 49.1875 189.145 49.4792 189.914 49.8438C190.689 50.2083 191.339 50.6425 191.862 51.1463C192.393 51.6501 192.794 52.2301 193.066 52.8864C193.337 53.5426 193.477 54.2784 193.483 55.0938C193.477 56.3797 193.152 57.4834 192.509 58.4048C191.866 59.3262 190.941 60.0322 189.735 60.5227C188.535 61.0133 187.086 61.2585 185.389 61.2585C183.686 61.2585 182.201 61.0033 180.935 60.4929C179.669 59.9825 178.684 59.2069 177.982 58.1662C177.279 57.1255 176.918 55.8097 176.898 54.2188H181.611C181.651 54.875 181.826 55.4219 182.138 55.8594C182.45 56.2969 182.877 56.6283 183.421 56.8537C183.971 57.0791 184.607 57.1918 185.33 57.1918C185.993 57.1918 186.556 57.1023 187.02 56.9233C187.491 56.7443 187.852 56.4957 188.104 56.1776C188.356 55.8594 188.485 55.4948 188.492 55.0838C188.485 54.6993 188.366 54.3712 188.134 54.0994C187.902 53.821 187.544 53.5824 187.06 53.3835C186.583 53.178 185.973 52.9891 185.23 52.8168L183.102 52.3196C181.339 51.9152 179.95 51.2623 178.936 50.3608C177.922 49.4527 177.418 48.2263 177.425 46.6818C177.418 45.4223 177.756 44.3187 178.439 43.3707C179.122 42.4228 180.066 41.6837 181.273 41.1534C182.479 40.6231 183.855 40.358 185.399 40.358C186.977 40.358 188.346 40.6264 189.506 41.1634C190.673 41.6937 191.577 42.4394 192.22 43.4006C192.863 44.3617 193.191 45.4754 193.205 46.7415H188.492ZM204.59 45.7273V49.3068H194.955V45.7273H204.59ZM196.973 42.0682H201.835V56.1974C201.835 56.4957 201.882 56.7377 201.975 56.9233C202.074 57.1023 202.217 57.2315 202.402 57.3111C202.588 57.384 202.81 57.4205 203.068 57.4205C203.254 57.4205 203.45 57.4039 203.655 57.3707C203.867 57.331 204.026 57.2978 204.132 57.2713L204.868 60.7812C204.636 60.8475 204.308 60.9304 203.884 61.0298C203.466 61.1293 202.966 61.1922 202.382 61.2188C201.242 61.2718 200.264 61.1392 199.449 60.821C198.64 60.4962 198.021 59.9924 197.59 59.3097C197.165 58.6269 196.96 57.7685 196.973 56.7344V42.0682ZM214.036 61.2884C212.432 61.2884 211.053 60.9602 209.899 60.304C208.753 59.6411 207.868 58.7197 207.244 57.5398C206.628 56.3532 206.32 54.9777 206.32 53.4134C206.32 51.8423 206.628 50.4669 207.244 49.2869C207.868 48.1004 208.753 47.179 209.899 46.5227C211.053 45.8598 212.432 45.5284 214.036 45.5284C215.64 45.5284 217.015 45.8598 218.162 46.5227C219.316 47.179 220.2 48.1004 220.817 49.2869C221.44 50.4669 221.752 51.8423 221.752 53.4134C221.752 54.9777 221.44 56.3532 220.817 57.5398C220.2 58.7197 219.316 59.6411 218.162 60.304C217.015 60.9602 215.64 61.2884 214.036 61.2884ZM214.066 57.6193C214.649 57.6193 215.143 57.4403 215.547 57.0824C215.951 56.7244 216.26 56.2273 216.472 55.5909C216.691 54.9545 216.8 54.2187 216.8 53.3835C216.8 52.535 216.691 51.7926 216.472 51.1562C216.26 50.5199 215.951 50.0227 215.547 49.6648C215.143 49.3068 214.649 49.1278 214.066 49.1278C213.462 49.1278 212.952 49.3068 212.534 49.6648C212.123 50.0227 211.808 50.5199 211.59 51.1562C211.378 51.7926 211.271 52.535 211.271 53.3835C211.271 54.2187 211.378 54.9545 211.59 55.5909C211.808 56.2273 212.123 56.7244 212.534 57.0824C212.952 57.4403 213.462 57.6193 214.066 57.6193ZM224.242 61V45.7273H228.965V48.5114H229.124C229.403 47.5038 229.857 46.7547 230.487 46.2642C231.116 45.767 231.849 45.5185 232.684 45.5185C232.91 45.5185 233.142 45.535 233.38 45.5682C233.619 45.5947 233.841 45.6378 234.046 45.6974V49.9233C233.814 49.8437 233.509 49.7808 233.132 49.7344C232.76 49.688 232.429 49.6648 232.137 49.6648C231.561 49.6648 231.04 49.794 230.576 50.0526C230.119 50.3045 229.758 50.6591 229.492 51.1165C229.234 51.5672 229.105 52.0975 229.105 52.7074V61H224.242ZM242.374 61.2884C240.776 61.2884 239.397 60.9735 238.237 60.3438C237.084 59.7074 236.196 58.8026 235.573 57.6293C234.956 56.4493 234.648 55.0473 234.648 53.4233C234.648 51.8456 234.959 50.4669 235.583 49.2869C236.206 48.1004 237.084 47.179 238.218 46.5227C239.351 45.8598 240.687 45.5284 242.225 45.5284C243.312 45.5284 244.306 45.6974 245.208 46.0355C246.109 46.3736 246.888 46.8741 247.544 47.5369C248.2 48.1998 248.711 49.0185 249.075 49.9929C249.44 50.9607 249.622 52.071 249.622 53.3239V54.5369H236.348V51.7131H245.098C245.092 51.196 244.969 50.7353 244.73 50.331C244.492 49.9266 244.164 49.6117 243.746 49.3864C243.335 49.1544 242.861 49.0384 242.324 49.0384C241.78 49.0384 241.293 49.161 240.862 49.4062C240.432 49.6449 240.09 49.973 239.838 50.3906C239.586 50.8016 239.454 51.2689 239.441 51.7926V54.6662C239.441 55.2893 239.563 55.8362 239.808 56.3068C240.054 56.7708 240.402 57.1321 240.852 57.3906C241.303 57.6491 241.84 57.7784 242.463 57.7784C242.894 57.7784 243.285 57.7187 243.637 57.5994C243.988 57.4801 244.289 57.3045 244.541 57.0724C244.793 56.8404 244.982 56.5554 245.108 56.2173L249.573 56.3466C249.387 57.3475 248.979 58.2192 248.35 58.9616C247.727 59.6974 246.908 60.2708 245.894 60.6818C244.879 61.0862 243.706 61.2884 242.374 61.2884ZM58.717 95V74.6364H63.6388V91.0028H72.1104V95H58.717ZM78.9638 95.2585C77.9893 95.2585 77.1243 95.0961 76.3686 94.7713C75.6196 94.4399 75.0263 93.9427 74.5888 93.2798C74.1579 92.6103 73.9425 91.7718 73.9425 90.7642C73.9425 89.9157 74.0916 89.1998 74.3899 88.6165C74.6882 88.0331 75.0992 87.5592 75.6229 87.1946C76.1465 86.83 76.7498 86.5549 77.4325 86.3693C78.1153 86.1771 78.8445 86.0478 79.62 85.9815C80.4884 85.902 81.1877 85.8191 81.718 85.733C82.2483 85.6402 82.6328 85.5109 82.8714 85.3452C83.1167 85.1728 83.2393 84.9309 83.2393 84.6193V84.5696C83.2393 84.0592 83.0637 83.6648 82.7124 83.3864C82.361 83.108 81.8871 82.9688 81.2905 82.9688C80.6475 82.9688 80.1304 83.108 79.7393 83.3864C79.3482 83.6648 79.0997 84.0492 78.9936 84.5398L74.5092 84.3807C74.6418 83.4527 74.9832 82.6241 75.5334 81.8949C76.0902 81.1591 76.8525 80.5824 77.8203 80.1648C78.7947 79.7405 79.9647 79.5284 81.3303 79.5284C82.3047 79.5284 83.2029 79.6444 84.0249 79.8764C84.8468 80.1018 85.5627 80.4332 86.1726 80.8707C86.7824 81.3016 87.2531 81.8319 87.5845 82.4616C87.9226 83.0914 88.0916 83.8106 88.0916 84.6193V95H83.5178V92.8722H83.3984C83.1267 93.3892 82.7786 93.8267 82.3544 94.1847C81.9368 94.5426 81.4429 94.8111 80.8729 94.9901C80.3094 95.169 79.6731 95.2585 78.9638 95.2585ZM80.4652 92.0767C80.9889 92.0767 81.4595 91.9706 81.8771 91.7585C82.3014 91.5464 82.6394 91.2547 82.8913 90.8835C83.1432 90.5057 83.2692 90.0682 83.2692 89.571V88.1193C83.13 88.1922 82.9609 88.2585 82.7621 88.3182C82.5698 88.3778 82.3577 88.4342 82.1257 88.4872C81.8937 88.5402 81.6551 88.5866 81.4098 88.6264C81.1645 88.6662 80.9292 88.7027 80.7038 88.7358C80.2464 88.8087 79.8554 88.9214 79.5305 89.0739C79.2124 89.2263 78.9671 89.4252 78.7947 89.6705C78.629 89.9091 78.5462 90.1941 78.5462 90.5256C78.5462 91.0294 78.7251 91.4138 79.0831 91.679C79.4477 91.9441 79.9084 92.0767 80.4652 92.0767ZM95.9268 86.2898V95H91.0646V79.7273H95.6882V82.5312H95.8572C96.1953 81.5966 96.772 80.8641 97.5874 80.3338C98.4027 79.7969 99.3738 79.5284 100.501 79.5284C101.575 79.5284 102.506 79.7704 103.295 80.2543C104.09 80.7315 104.707 81.401 105.144 82.2628C105.588 83.1179 105.807 84.1188 105.8 85.2656V95H100.938V86.2202C100.945 85.3717 100.729 84.7088 100.292 84.2315C99.861 83.7543 99.2611 83.5156 98.4922 83.5156C97.9818 83.5156 97.531 83.6283 97.1399 83.8537C96.7554 84.0724 96.4571 84.3873 96.245 84.7983C96.0395 85.2093 95.9335 85.7064 95.9268 86.2898ZM114.389 95.2188C113.262 95.2188 112.238 94.9271 111.316 94.3438C110.395 93.7604 109.659 92.8854 109.109 91.7188C108.559 90.5521 108.284 89.1037 108.284 87.3736C108.284 85.5772 108.569 84.099 109.139 82.9389C109.709 81.7789 110.455 80.9205 111.376 80.3636C112.304 79.8068 113.302 79.5284 114.369 79.5284C115.171 79.5284 115.857 79.6676 116.427 79.946C116.997 80.2178 117.468 80.5691 117.839 81C118.21 81.4309 118.492 81.8783 118.684 82.3423H118.784V74.6364H123.646V95H118.833V92.5241H118.684C118.479 92.9948 118.187 93.4356 117.809 93.8466C117.431 94.2576 116.958 94.589 116.387 94.8409C115.824 95.0928 115.158 95.2188 114.389 95.2188ZM116.079 91.4304C116.669 91.4304 117.173 91.2647 117.591 90.9332C118.008 90.5952 118.33 90.1212 118.555 89.5114C118.78 88.9015 118.893 88.1856 118.893 87.3636C118.893 86.5284 118.78 85.8092 118.555 85.206C118.336 84.6027 118.015 84.1387 117.591 83.8139C117.173 83.4891 116.669 83.3267 116.079 83.3267C115.476 83.3267 114.966 83.4924 114.548 83.8239C114.13 84.1553 113.812 84.6226 113.593 85.2259C113.381 85.8291 113.275 86.5417 113.275 87.3636C113.275 88.1856 113.385 88.9015 113.603 89.5114C113.822 90.1212 114.137 90.5952 114.548 90.9332C114.966 91.2647 115.476 91.4304 116.079 91.4304ZM126.721 95V79.7273H131.583V95H126.721ZM129.157 77.9474C128.474 77.9474 127.888 77.7221 127.397 77.2713C126.906 76.8139 126.661 76.2637 126.661 75.6207C126.661 74.9844 126.906 74.4408 127.397 73.9901C127.888 73.5327 128.474 73.304 129.157 73.304C129.846 73.304 130.433 73.5327 130.917 73.9901C131.407 74.4408 131.653 74.9844 131.653 75.6207C131.653 76.2637 131.407 76.8139 130.917 77.2713C130.433 77.7221 129.846 77.9474 129.157 77.9474ZM139.54 86.2898V95H134.678V79.7273H139.301V82.5312H139.471C139.809 81.5966 140.385 80.8641 141.201 80.3338C142.016 79.7969 142.987 79.5284 144.114 79.5284C145.188 79.5284 146.119 79.7704 146.908 80.2543C147.703 80.7315 148.32 81.401 148.757 82.2628C149.202 83.1179 149.42 84.1188 149.414 85.2656V95H144.551V86.2202C144.558 85.3717 144.343 84.7088 143.905 84.2315C143.474 83.7543 142.874 83.5156 142.105 83.5156C141.595 83.5156 141.144 83.6283 140.753 83.8537C140.369 84.0724 140.07 84.3873 139.858 84.7983C139.653 85.2093 139.547 85.7064 139.54 86.2898ZM159.543 101.045C158.092 101.045 156.849 100.843 155.815 100.439C154.781 100.035 153.969 99.4811 153.379 98.7784C152.789 98.0758 152.434 97.2803 152.315 96.392L156.918 96.1335C157.004 96.4451 157.164 96.7169 157.396 96.9489C157.634 97.1809 157.942 97.3598 158.32 97.4858C158.705 97.6117 159.156 97.6747 159.673 97.6747C160.488 97.6747 161.161 97.4759 161.691 97.0781C162.228 96.687 162.496 96.0009 162.496 95.0199V92.3352H162.327C162.135 92.8059 161.844 93.2268 161.452 93.598C161.061 93.9692 160.574 94.2609 159.991 94.473C159.414 94.6851 158.751 94.7912 158.002 94.7912C156.888 94.7912 155.868 94.5327 154.94 94.0156C154.018 93.492 153.279 92.6832 152.722 91.5895C152.172 90.4891 151.897 89.0739 151.897 87.3438C151.897 85.5606 152.182 84.0923 152.752 82.9389C153.322 81.7789 154.068 80.9205 154.989 80.3636C155.917 79.8068 156.915 79.5284 157.982 79.5284C158.784 79.5284 159.47 79.6676 160.04 79.946C160.617 80.2178 161.091 80.5691 161.462 81C161.834 81.4309 162.115 81.8783 162.308 82.3423H162.447V79.7273H167.289V95.0597C167.289 96.3523 166.964 97.4427 166.315 98.331C165.665 99.2192 164.757 99.892 163.59 100.349C162.424 100.813 161.075 101.045 159.543 101.045ZM159.692 91.2514C160.282 91.2514 160.786 91.0956 161.204 90.7841C161.621 90.4725 161.943 90.0251 162.168 89.4418C162.394 88.8584 162.506 88.1591 162.506 87.3438C162.506 86.5152 162.394 85.8026 162.168 85.206C161.95 84.6027 161.628 84.1387 161.204 83.8139C160.786 83.4891 160.282 83.3267 159.692 83.3267C159.089 83.3267 158.579 83.4924 158.161 83.8239C157.744 84.1553 157.425 84.6226 157.207 85.2259C156.995 85.8224 156.888 86.5284 156.888 87.3438C156.888 88.1591 156.998 88.8584 157.217 89.4418C157.435 90.0251 157.75 90.4725 158.161 90.7841C158.579 91.0956 159.089 91.2514 159.692 91.2514ZM176.404 95V74.6364H184.816C186.341 74.6364 187.657 74.9347 188.764 75.5312C189.877 76.1212 190.736 76.9465 191.339 78.0071C191.942 79.0611 192.244 80.2874 192.244 81.6861C192.244 83.0914 191.936 84.321 191.319 85.375C190.709 86.4223 189.838 87.2344 188.704 87.8111C187.571 88.3878 186.225 88.6761 184.667 88.6761H179.477V84.7983H183.752C184.495 84.7983 185.115 84.669 185.612 84.4105C186.116 84.152 186.497 83.7907 186.755 83.3267C187.014 82.8561 187.143 82.3092 187.143 81.6861C187.143 81.0563 187.014 80.5128 186.755 80.0554C186.497 79.5914 186.116 79.2334 185.612 78.9815C185.108 78.7296 184.488 78.6037 183.752 78.6037H181.326V95H176.404ZM198.429 95.2585C197.454 95.2585 196.589 95.0961 195.833 94.7713C195.084 94.4399 194.491 93.9427 194.054 93.2798C193.623 92.6103 193.407 91.7718 193.407 90.7642C193.407 89.9157 193.556 89.1998 193.855 88.6165C194.153 88.0331 194.564 87.5592 195.088 87.1946C195.611 86.83 196.215 86.5549 196.897 86.3693C197.58 86.1771 198.309 86.0478 199.085 85.9815C199.953 85.902 200.653 85.8191 201.183 85.733C201.713 85.6402 202.098 85.5109 202.336 85.3452C202.582 85.1728 202.704 84.9309 202.704 84.6193V84.5696C202.704 84.0592 202.529 83.6648 202.177 83.3864C201.826 83.108 201.352 82.9688 200.755 82.9688C200.112 82.9688 199.595 83.108 199.204 83.3864C198.813 83.6648 198.565 84.0492 198.458 84.5398L193.974 84.3807C194.107 83.4527 194.448 82.6241 194.998 81.8949C195.555 81.1591 196.317 80.5824 197.285 80.1648C198.26 79.7405 199.43 79.5284 200.795 79.5284C201.77 79.5284 202.668 79.6444 203.49 79.8764C204.312 80.1018 205.028 80.4332 205.637 80.8707C206.247 81.3016 206.718 81.8319 207.049 82.4616C207.387 83.0914 207.556 83.8106 207.556 84.6193V95H202.983V92.8722H202.863C202.592 93.3892 202.243 93.8267 201.819 94.1847C201.402 94.5426 200.908 94.8111 200.338 94.9901C199.774 95.169 199.138 95.2585 198.429 95.2585ZM199.93 92.0767C200.454 92.0767 200.924 91.9706 201.342 91.7585C201.766 91.5464 202.104 91.2547 202.356 90.8835C202.608 90.5057 202.734 90.0682 202.734 89.571V88.1193C202.595 88.1922 202.426 88.2585 202.227 88.3182C202.035 88.3778 201.823 88.4342 201.591 88.4872C201.359 88.5402 201.12 88.5866 200.875 88.6264C200.629 88.6662 200.394 88.7027 200.169 88.7358C199.711 88.8087 199.32 88.9214 198.995 89.0739C198.677 89.2263 198.432 89.4252 198.26 89.6705C198.094 89.9091 198.011 90.1941 198.011 90.5256C198.011 91.0294 198.19 91.4138 198.548 91.679C198.913 91.9441 199.373 92.0767 199.93 92.0767ZM217.649 101.045C216.197 101.045 214.954 100.843 213.92 100.439C212.886 100.035 212.074 99.4811 211.484 98.7784C210.894 98.0758 210.539 97.2803 210.42 96.392L215.024 96.1335C215.11 96.4451 215.269 96.7169 215.501 96.9489C215.74 97.1809 216.048 97.3598 216.426 97.4858C216.81 97.6117 217.261 97.6747 217.778 97.6747C218.593 97.6747 219.266 97.4759 219.797 97.0781C220.333 96.687 220.602 96.0009 220.602 95.0199V92.3352H220.433C220.241 92.8059 219.949 93.2268 219.558 93.598C219.167 93.9692 218.68 94.2609 218.096 94.473C217.52 94.6851 216.857 94.7912 216.108 94.7912C214.994 94.7912 213.973 94.5327 213.045 94.0156C212.124 93.492 211.385 92.6832 210.828 91.5895C210.278 90.4891 210.002 89.0739 210.002 87.3438C210.002 85.5606 210.288 84.0923 210.858 82.9389C211.428 81.7789 212.173 80.9205 213.095 80.3636C214.023 79.8068 215.02 79.5284 216.088 79.5284C216.89 79.5284 217.576 79.6676 218.146 79.946C218.723 80.2178 219.197 80.5691 219.568 81C219.939 81.4309 220.221 81.8783 220.413 82.3423H220.552V79.7273H225.395V95.0597C225.395 96.3523 225.07 97.4427 224.42 98.331C223.77 99.2192 222.862 99.892 221.696 100.349C220.529 100.813 219.18 101.045 217.649 101.045ZM217.798 91.2514C218.388 91.2514 218.892 91.0956 219.309 90.7841C219.727 90.4725 220.048 90.0251 220.274 89.4418C220.499 88.8584 220.612 88.1591 220.612 87.3438C220.612 86.5152 220.499 85.8026 220.274 85.206C220.055 84.6027 219.734 84.1387 219.309 83.8139C218.892 83.4891 218.388 83.3267 217.798 83.3267C217.195 83.3267 216.684 83.4924 216.267 83.8239C215.849 84.1553 215.531 84.6226 215.312 85.2259C215.1 85.8224 214.994 86.5284 214.994 87.3438C214.994 88.1591 215.103 88.8584 215.322 89.4418C215.541 90.0251 215.856 90.4725 216.267 90.7841C216.684 91.0956 217.195 91.2514 217.798 91.2514ZM235.634 95.2884C234.036 95.2884 232.657 94.9735 231.497 94.3438C230.344 93.7074 229.455 92.8026 228.832 91.6293C228.216 90.4493 227.908 89.0473 227.908 87.4233C227.908 85.8456 228.219 84.4669 228.842 83.2869C229.465 82.1004 230.344 81.179 231.477 80.5227C232.611 79.8598 233.946 79.5284 235.484 79.5284C236.571 79.5284 237.566 79.6974 238.467 80.0355C239.369 80.3736 240.148 80.8741 240.804 81.5369C241.46 82.1998 241.971 83.0185 242.335 83.9929C242.7 84.9607 242.882 86.071 242.882 87.3239V88.5369H229.608V85.7131H238.358C238.351 85.196 238.229 84.7353 237.99 84.331C237.751 83.9266 237.423 83.6117 237.006 83.3864C236.595 83.1544 236.121 83.0384 235.584 83.0384C235.04 83.0384 234.553 83.161 234.122 83.4062C233.691 83.6449 233.35 83.973 233.098 84.3906C232.846 84.8016 232.714 85.2689 232.7 85.7926V88.6662C232.7 89.2893 232.823 89.8362 233.068 90.3068C233.313 90.7708 233.661 91.1321 234.112 91.3906C234.563 91.6491 235.1 91.7784 235.723 91.7784C236.154 91.7784 236.545 91.7187 236.896 91.5994C237.248 91.4801 237.549 91.3045 237.801 91.0724C238.053 90.8404 238.242 90.5554 238.368 90.2173L242.832 90.3466C242.647 91.3475 242.239 92.2192 241.609 92.9616C240.986 93.6974 240.168 94.2708 239.153 94.6818C238.139 95.0862 236.966 95.2884 235.634 95.2884Z" fill="white"/>
</svg>
