<svg width="300" height="200" viewBox="0 0 300 200" fill="none" xmlns="http://www.w3.org/2000/svg">
<rect width="300" height="200" fill="#B8354F"/>
<path d="M53.4096 47.9844H47.8102C47.7079 47.2599 47.4991 46.6165 47.1838 46.054C46.8684 45.483 46.4636 44.9972 45.9693 44.5966C45.475 44.196 44.9039 43.8892 44.2562 43.6761C43.617 43.4631 42.9224 43.3565 42.1724 43.3565C40.8173 43.3565 39.6369 43.6932 38.6312 44.3665C37.6255 45.0312 36.8457 46.0028 36.2917 47.2812C35.7377 48.5511 35.4608 50.0937 35.4608 51.9091C35.4608 53.7756 35.7377 55.3437 36.2917 56.6136C36.8542 57.8835 37.6383 58.8423 38.644 59.4901C39.6497 60.1378 40.813 60.4616 42.1341 60.4616C42.8755 60.4616 43.5616 60.3636 44.1923 60.1676C44.8315 59.9716 45.3983 59.6861 45.8926 59.3111C46.3869 58.9276 46.796 58.4631 47.1199 57.9176C47.4522 57.3722 47.6824 56.75 47.8102 56.0511L53.4096 56.0767C53.2647 57.2784 52.9025 58.4375 52.323 59.554C51.752 60.6619 50.9806 61.6548 50.0091 62.5327C49.046 63.402 47.8954 64.0923 46.5574 64.6037C45.2278 65.1065 43.7235 65.358 42.0446 65.358C39.7093 65.358 37.6213 64.8295 35.7804 63.7727C33.948 62.7159 32.4991 61.1861 31.4338 59.1832C30.377 57.1804 29.8485 54.7557 29.8485 51.9091C29.8485 49.054 30.3855 46.625 31.4593 44.6222C32.5332 42.6193 33.9906 41.0937 35.8315 40.0455C37.6724 38.9886 39.7434 38.4602 42.0446 38.4602C43.5616 38.4602 44.9679 38.6733 46.2633 39.0994C47.5673 39.5256 48.7221 40.1477 49.7278 40.9659C50.7335 41.7756 51.5517 42.7685 52.1824 43.9446C52.8216 45.1207 53.2306 46.4673 53.4096 47.9844ZM62.7228 38.8182V65H57.2768V38.8182H62.7228ZM75.9576 65.3835C73.9718 65.3835 72.2544 64.9616 70.8056 64.1179C69.3652 63.2656 68.253 62.081 67.4689 60.5639C66.6848 59.0384 66.2928 57.2699 66.2928 55.2585C66.2928 53.2301 66.6848 51.4574 67.4689 49.9403C68.253 48.4148 69.3652 47.2301 70.8056 46.3864C72.2544 45.5341 73.9718 45.108 75.9576 45.108C77.9434 45.108 79.6564 45.5341 81.0968 46.3864C82.5456 47.2301 83.6621 48.4148 84.4462 49.9403C85.2303 51.4574 85.6223 53.2301 85.6223 55.2585C85.6223 57.2699 85.2303 59.0384 84.4462 60.5639C83.6621 62.081 82.5456 63.2656 81.0968 64.1179C79.6564 64.9616 77.9434 65.3835 75.9576 65.3835ZM75.9831 61.1648C76.8865 61.1648 77.6408 60.9091 78.2459 60.3977C78.851 59.8778 79.307 59.1705 79.6138 58.2756C79.9292 57.3807 80.0868 56.3622 80.0868 55.2202C80.0868 54.0781 79.9292 53.0597 79.6138 52.1648C79.307 51.2699 78.851 50.5625 78.2459 50.0426C77.6408 49.5227 76.8865 49.2628 75.9831 49.2628C75.0712 49.2628 74.3042 49.5227 73.682 50.0426C73.0684 50.5625 72.6039 51.2699 72.2885 52.1648C71.9817 53.0597 71.8283 54.0781 71.8283 55.2202C71.8283 56.3622 71.9817 57.3807 72.2885 58.2756C72.6039 59.1705 73.0684 59.8778 73.682 60.3977C74.3042 60.9091 75.0712 61.1648 75.9831 61.1648ZM99.6081 45.3636V49.4545H87.7828V45.3636H99.6081ZM90.4675 40.6591H95.9135V58.9659C95.9135 59.4687 95.9902 59.8608 96.1436 60.142C96.2971 60.4148 96.5101 60.6065 96.7828 60.7173C97.0641 60.8281 97.388 60.8835 97.7544 60.8835C98.0101 60.8835 98.2658 60.8622 98.5215 60.8196C98.7772 60.7685 98.9732 60.7301 99.1096 60.7045L99.9661 64.7571C99.6934 64.8423 99.3098 64.9403 98.8155 65.0511C98.3212 65.1705 97.7203 65.2429 97.013 65.2685C95.7005 65.3196 94.5499 65.1449 93.5613 64.7443C92.5811 64.3437 91.8184 63.7216 91.2729 62.8778C90.7275 62.0341 90.459 60.9687 90.4675 59.6818V40.6591ZM109.024 53.6477V65H103.578V38.8182H108.87V48.8281H109.1C109.544 47.669 110.259 46.7614 111.248 46.1051C112.237 45.4403 113.477 45.108 114.968 45.108C116.332 45.108 117.521 45.4062 118.535 46.0028C119.558 46.5909 120.35 47.4389 120.913 48.5469C121.484 49.6463 121.765 50.9631 121.757 52.4972V65H116.311V53.4688C116.319 52.2585 116.012 51.3168 115.39 50.6435C114.776 49.9702 113.916 49.6335 112.808 49.6335C112.066 49.6335 111.41 49.7912 110.839 50.1065C110.276 50.4219 109.833 50.8821 109.509 51.4872C109.194 52.0838 109.032 52.804 109.024 53.6477ZM126.042 65V45.3636H131.488V65H126.042ZM128.778 42.8324C127.969 42.8324 127.274 42.5639 126.694 42.027C126.123 41.4815 125.838 40.8295 125.838 40.071C125.838 39.321 126.123 38.6776 126.694 38.1406C127.274 37.5952 127.969 37.3224 128.778 37.3224C129.588 37.3224 130.278 37.5952 130.849 38.1406C131.429 38.6776 131.719 39.321 131.719 40.071C131.719 40.8295 131.429 41.4815 130.849 42.027C130.278 42.5639 129.588 42.8324 128.778 42.8324ZM141.297 53.6477V65H135.851V45.3636H141.041V48.8281H141.271C141.706 47.6861 142.435 46.7827 143.458 46.1179C144.48 45.4446 145.72 45.108 147.178 45.108C148.541 45.108 149.73 45.4062 150.744 46.0028C151.759 46.5994 152.547 47.4517 153.11 48.5597C153.672 49.6591 153.953 50.9716 153.953 52.4972V65H148.507V53.4688C148.516 52.267 148.209 51.3295 147.587 50.6562C146.965 49.9744 146.108 49.6335 145.017 49.6335C144.284 49.6335 143.637 49.7912 143.074 50.1065C142.52 50.4219 142.085 50.8821 141.77 51.4872C141.463 52.0838 141.306 52.804 141.297 53.6477ZM167.092 72.7727C165.328 72.7727 163.815 72.5298 162.554 72.044C161.301 71.5668 160.304 70.9148 159.562 70.0881C158.821 69.2614 158.339 68.3324 158.118 67.3011L163.155 66.6236C163.308 67.0156 163.551 67.3821 163.883 67.723C164.216 68.0639 164.655 68.3366 165.2 68.5412C165.754 68.7543 166.427 68.8608 167.22 68.8608C168.405 68.8608 169.381 68.571 170.148 67.9915C170.923 67.4205 171.311 66.4616 171.311 65.1151V61.5227H171.081C170.842 62.0682 170.484 62.5838 170.007 63.0696C169.53 63.5554 168.916 63.9517 168.166 64.2585C167.416 64.5653 166.521 64.7188 165.481 64.7188C164.007 64.7188 162.665 64.3778 161.454 63.696C160.253 63.0057 159.294 61.9531 158.578 60.5384C157.871 59.1151 157.517 57.3168 157.517 55.1435C157.517 52.919 157.879 51.0611 158.604 49.5696C159.328 48.0781 160.291 46.9616 161.493 46.2202C162.703 45.4787 164.028 45.108 165.469 45.108C166.568 45.108 167.488 45.2955 168.23 45.6705C168.971 46.0369 169.568 46.4972 170.02 47.0511C170.48 47.5966 170.834 48.1335 171.081 48.6619H171.285V45.3636H176.693V65.1918C176.693 66.8622 176.284 68.2599 175.466 69.3849C174.648 70.5099 173.514 71.3537 172.065 71.9162C170.625 72.4872 168.967 72.7727 167.092 72.7727ZM167.207 60.6278C168.085 60.6278 168.827 60.4105 169.432 59.9759C170.045 59.5327 170.514 58.902 170.838 58.0838C171.17 57.2571 171.336 56.2685 171.336 55.1179C171.336 53.9673 171.175 52.9702 170.851 52.1264C170.527 51.2741 170.058 50.6136 169.444 50.1449C168.831 49.6761 168.085 49.4418 167.207 49.4418C166.312 49.4418 165.558 49.6847 164.944 50.1705C164.331 50.6477 163.866 51.3125 163.551 52.1648C163.236 53.017 163.078 54.0014 163.078 55.1179C163.078 56.2514 163.236 57.2315 163.551 58.0582C163.875 58.8764 164.339 59.5114 164.944 59.9631C165.558 60.4062 166.312 60.6278 167.207 60.6278ZM203.664 46.348C203.562 45.3168 203.123 44.5156 202.347 43.9446C201.572 43.3736 200.519 43.0881 199.19 43.0881C198.286 43.0881 197.524 43.2159 196.901 43.4716C196.279 43.7188 195.802 44.0639 195.47 44.5071C195.146 44.9503 194.984 45.4531 194.984 46.0156C194.967 46.4844 195.065 46.8935 195.278 47.2429C195.499 47.5923 195.802 47.8949 196.186 48.1506C196.569 48.3977 197.012 48.6151 197.515 48.8026C198.018 48.9815 198.555 49.1349 199.126 49.2628L201.478 49.8253C202.62 50.081 203.669 50.4219 204.623 50.848C205.578 51.2741 206.404 51.7983 207.103 52.4205C207.802 53.0426 208.343 53.7756 208.727 54.6193C209.119 55.4631 209.319 56.4304 209.328 57.5213C209.319 59.1236 208.91 60.5128 208.1 61.6889C207.299 62.8565 206.14 63.7642 204.623 64.4119C203.115 65.0511 201.295 65.3707 199.164 65.3707C197.051 65.3707 195.21 65.0469 193.642 64.3991C192.082 63.7514 190.863 62.7926 189.985 61.5227C189.116 60.2443 188.66 58.6634 188.617 56.7798H193.974C194.034 57.6577 194.285 58.3906 194.728 58.9787C195.18 59.5582 195.781 59.9972 196.531 60.2955C197.289 60.5852 198.146 60.7301 199.1 60.7301C200.038 60.7301 200.852 60.5937 201.542 60.321C202.241 60.0483 202.782 59.669 203.166 59.1832C203.549 58.6974 203.741 58.1392 203.741 57.5085C203.741 56.9205 203.566 56.4261 203.217 56.0256C202.876 55.625 202.373 55.2841 201.708 55.0028C201.052 54.7216 200.247 54.4659 199.292 54.2358L196.441 53.5199C194.234 52.983 192.491 52.1435 191.213 51.0014C189.934 49.8594 189.299 48.321 189.308 46.3864C189.299 44.8011 189.721 43.4162 190.573 42.2315C191.434 41.0469 192.615 40.1222 194.115 39.4574C195.615 38.7926 197.319 38.4602 199.228 38.4602C201.171 38.4602 202.867 38.7926 204.316 39.4574C205.774 40.1222 206.907 41.0469 207.717 42.2315C208.526 43.4162 208.944 44.7884 208.97 46.348H203.664ZM223.393 45.3636V49.4545H211.568V45.3636H223.393ZM214.253 40.6591H219.699V58.9659C219.699 59.4687 219.775 59.8608 219.929 60.142C220.082 60.4148 220.295 60.6065 220.568 60.7173C220.849 60.8281 221.173 60.8835 221.54 60.8835C221.795 60.8835 222.051 60.8622 222.307 60.8196C222.562 60.7685 222.758 60.7301 222.895 60.7045L223.751 64.7571C223.479 64.8423 223.095 64.9403 222.601 65.0511C222.106 65.1705 221.506 65.2429 220.798 65.2685C219.486 65.3196 218.335 65.1449 217.346 64.7443C216.366 64.3437 215.604 63.7216 215.058 62.8778C214.513 62.0341 214.244 60.9687 214.253 59.6818V40.6591ZM235.602 65.3835C233.616 65.3835 231.899 64.9616 230.45 64.1179C229.01 63.2656 227.898 62.081 227.113 60.5639C226.329 59.0384 225.937 57.2699 225.937 55.2585C225.937 53.2301 226.329 51.4574 227.113 49.9403C227.898 48.4148 229.01 47.2301 230.45 46.3864C231.899 45.5341 233.616 45.108 235.602 45.108C237.588 45.108 239.301 45.5341 240.741 46.3864C242.19 47.2301 243.307 48.4148 244.091 49.9403C244.875 51.4574 245.267 53.2301 245.267 55.2585C245.267 57.2699 244.875 59.0384 244.091 60.5639C243.307 62.081 242.19 63.2656 240.741 64.1179C239.301 64.9616 237.588 65.3835 235.602 65.3835ZM235.628 61.1648C236.531 61.1648 237.285 60.9091 237.89 60.3977C238.496 59.8778 238.952 59.1705 239.258 58.2756C239.574 57.3807 239.731 56.3622 239.731 55.2202C239.731 54.0781 239.574 53.0597 239.258 52.1648C238.952 51.2699 238.496 50.5625 237.89 50.0426C237.285 49.5227 236.531 49.2628 235.628 49.2628C234.716 49.2628 233.949 49.5227 233.327 50.0426C232.713 50.5625 232.248 51.2699 231.933 52.1648C231.626 53.0597 231.473 54.0781 231.473 55.2202C231.473 56.3622 231.626 57.3807 231.933 58.2756C232.248 59.1705 232.713 59.8778 233.327 60.3977C233.949 60.9091 234.716 61.1648 235.628 61.1648ZM248.808 65V45.3636H254.088V48.7898H254.292C254.65 47.571 255.251 46.6506 256.095 46.0284C256.939 45.3977 257.91 45.0824 259.01 45.0824C259.282 45.0824 259.577 45.0994 259.892 45.1335C260.207 45.1676 260.484 45.2145 260.723 45.2741V50.1065C260.467 50.0298 260.113 49.9616 259.662 49.902C259.21 49.8423 258.797 49.8125 258.422 49.8125C257.621 49.8125 256.905 49.9872 256.274 50.3366C255.652 50.6776 255.157 51.1548 254.791 51.7685C254.433 52.3821 254.254 53.0895 254.254 53.8906V65H248.808ZM271.573 65.3835C269.553 65.3835 267.815 64.9744 266.357 64.1562C264.909 63.3295 263.792 62.1619 263.008 60.6534C262.224 59.1364 261.832 57.3423 261.832 55.2713C261.832 53.2514 262.224 51.4787 263.008 49.9531C263.792 48.4276 264.896 47.2386 266.319 46.3864C267.751 45.5341 269.43 45.108 271.356 45.108C272.651 45.108 273.857 45.3168 274.974 45.7344C276.099 46.1435 277.079 46.7614 277.914 47.5881C278.758 48.4148 279.414 49.4545 279.883 50.7074C280.352 51.9517 280.586 53.4091 280.586 55.0795V56.5753H264.005V53.2003H275.46C275.46 52.4162 275.289 51.7216 274.948 51.1165C274.607 50.5114 274.134 50.0384 273.529 49.6974C272.933 49.348 272.238 49.1733 271.445 49.1733C270.619 49.1733 269.886 49.3651 269.247 49.7486C268.616 50.1236 268.122 50.6307 267.764 51.2699C267.406 51.9006 267.222 52.6037 267.214 53.3793V56.5881C267.214 57.5597 267.393 58.3991 267.751 59.1065C268.117 59.8139 268.633 60.3594 269.298 60.7429C269.963 61.1264 270.751 61.3182 271.663 61.3182C272.268 61.3182 272.822 61.233 273.325 61.0625C273.828 60.892 274.258 60.6364 274.616 60.2955C274.974 59.9545 275.247 59.5369 275.434 59.0426L280.471 59.375C280.215 60.5852 279.691 61.642 278.899 62.5455C278.115 63.4403 277.1 64.1392 275.856 64.642C274.62 65.1364 273.193 65.3835 271.573 65.3835ZM38.342 109V82.8182H43.8775V104.436H55.1019V109H38.342ZM64.2649 109.371C63.0121 109.371 61.8956 109.153 60.9155 108.719C59.9354 108.276 59.1598 107.624 58.5888 106.763C58.0263 105.893 57.745 104.811 57.745 103.516C57.745 102.425 57.9453 101.509 58.3459 100.767C58.7464 100.026 59.2919 99.429 59.9822 98.9773C60.6726 98.5256 61.4567 98.1847 62.3345 97.9545C63.2209 97.7244 64.1499 97.5625 65.1214 97.4688C66.2635 97.3494 67.1839 97.2386 67.8828 97.1364C68.5817 97.0256 69.0888 96.8636 69.4041 96.6506C69.7195 96.4375 69.8771 96.1222 69.8771 95.7045V95.6278C69.8771 94.8182 69.6214 94.1918 69.1101 93.7486C68.6072 93.3054 67.8913 93.0838 66.9624 93.0838C65.9822 93.0838 65.2024 93.3011 64.6229 93.7358C64.0433 94.1619 63.6598 94.6989 63.4723 95.3466L58.4354 94.9375C58.6911 93.7443 59.1939 92.7131 59.9439 91.8438C60.6939 90.9659 61.6612 90.2926 62.8459 89.8239C64.0391 89.3466 65.4197 89.108 66.9879 89.108C68.0788 89.108 69.1229 89.2358 70.12 89.4915C71.1257 89.7472 72.0163 90.1435 72.7919 90.6804C73.576 91.2173 74.1939 91.9077 74.6456 92.7514C75.0973 93.5866 75.3232 94.5881 75.3232 95.7557V109H70.1584V106.277H70.005C69.6896 106.891 69.2678 107.432 68.7393 107.901C68.2109 108.361 67.576 108.723 66.8345 108.987C66.093 109.243 65.2365 109.371 64.2649 109.371ZM65.8246 105.612C66.6257 105.612 67.3331 105.455 67.9467 105.139C68.5604 104.815 69.0419 104.381 69.3913 103.835C69.7408 103.29 69.9155 102.672 69.9155 101.982V99.8977C69.745 100.009 69.5107 100.111 69.2124 100.205C68.9226 100.29 68.5945 100.371 68.228 100.447C67.8615 100.516 67.495 100.58 67.1286 100.639C66.7621 100.69 66.4297 100.737 66.1314 100.78C65.4922 100.874 64.9339 101.023 64.4567 101.227C63.9794 101.432 63.6087 101.709 63.3445 102.058C63.0803 102.399 62.9482 102.825 62.9482 103.337C62.9482 104.078 63.2166 104.645 63.7536 105.037C64.299 105.42 64.9893 105.612 65.8246 105.612ZM84.9943 97.6477V109H79.5483V89.3636H84.7386V92.8281H84.9688C85.4034 91.6861 86.1321 90.7827 87.1548 90.1179C88.1776 89.4446 89.4176 89.108 90.875 89.108C92.2386 89.108 93.4276 89.4062 94.4418 90.0028C95.456 90.5994 96.2443 91.4517 96.8068 92.5597C97.3693 93.6591 97.6506 94.9716 97.6506 96.4972V109H92.2045V97.4688C92.2131 96.267 91.9063 95.3295 91.2841 94.6562C90.6619 93.9744 89.8054 93.6335 88.7145 93.6335C87.9815 93.6335 87.3338 93.7912 86.7713 94.1065C86.2173 94.4219 85.7827 94.8821 85.4673 95.4872C85.1605 96.0838 85.0028 96.804 84.9943 97.6477ZM109.179 109.32C107.687 109.32 106.336 108.936 105.126 108.169C103.924 107.393 102.97 106.256 102.262 104.756C101.564 103.247 101.214 101.398 101.214 99.2074C101.214 96.9574 101.576 95.0866 102.301 93.5952C103.025 92.0952 103.988 90.9744 105.19 90.233C106.4 89.483 107.725 89.108 109.166 89.108C110.265 89.108 111.181 89.2955 111.914 89.6705C112.656 90.0369 113.252 90.4972 113.704 91.0511C114.164 91.5966 114.514 92.1335 114.752 92.6619H114.919V82.8182H120.352V109H114.983V105.855H114.752C114.497 106.401 114.135 106.942 113.666 107.479C113.206 108.007 112.605 108.446 111.863 108.795C111.13 109.145 110.235 109.32 109.179 109.32ZM110.904 104.986C111.782 104.986 112.524 104.747 113.129 104.27C113.743 103.784 114.211 103.107 114.535 102.237C114.868 101.368 115.034 100.349 115.034 99.1818C115.034 98.0142 114.872 97 114.548 96.1392C114.224 95.2784 113.755 94.6136 113.142 94.1449C112.528 93.6761 111.782 93.4418 110.904 93.4418C110.01 93.4418 109.255 93.6847 108.642 94.1705C108.028 94.6562 107.564 95.3295 107.248 96.1903C106.933 97.0511 106.775 98.0483 106.775 99.1818C106.775 100.324 106.933 101.334 107.248 102.212C107.572 103.081 108.037 103.763 108.642 104.257C109.255 104.743 110.01 104.986 110.904 104.986ZM124.83 109V89.3636H130.276V109H124.83ZM127.565 86.8324C126.756 86.8324 126.061 86.5639 125.482 86.027C124.911 85.4815 124.625 84.8295 124.625 84.071C124.625 83.321 124.911 82.6776 125.482 82.1406C126.061 81.5952 126.756 81.3224 127.565 81.3224C128.375 81.3224 129.065 81.5952 129.636 82.1406C130.216 82.6776 130.506 83.321 130.506 84.071C130.506 84.8295 130.216 85.4815 129.636 86.027C129.065 86.5639 128.375 86.8324 127.565 86.8324ZM140.084 97.6477V109H134.638V89.3636H139.828V92.8281H140.059C140.493 91.6861 141.222 90.7827 142.245 90.1179C143.267 89.4446 144.507 89.108 145.965 89.108C147.328 89.108 148.517 89.4062 149.532 90.0028C150.546 90.5994 151.334 91.4517 151.897 92.5597C152.459 93.6591 152.74 94.9716 152.74 96.4972V109H147.294V97.4688C147.303 96.267 146.996 95.3295 146.374 94.6562C145.752 93.9744 144.895 93.6335 143.804 93.6335C143.071 93.6335 142.424 93.7912 141.861 94.1065C141.307 94.4219 140.873 94.8821 140.557 95.4872C140.25 96.0838 140.093 96.804 140.084 97.6477ZM165.879 116.773C164.115 116.773 162.602 116.53 161.341 116.044C160.088 115.567 159.091 114.915 158.349 114.088C157.608 113.261 157.126 112.332 156.905 111.301L161.942 110.624C162.095 111.016 162.338 111.382 162.67 111.723C163.003 112.064 163.442 112.337 163.987 112.541C164.541 112.754 165.214 112.861 166.007 112.861C167.192 112.861 168.168 112.571 168.935 111.991C169.71 111.42 170.098 110.462 170.098 109.115V105.523H169.868C169.629 106.068 169.271 106.584 168.794 107.07C168.317 107.555 167.703 107.952 166.953 108.259C166.203 108.565 165.308 108.719 164.268 108.719C162.794 108.719 161.452 108.378 160.241 107.696C159.04 107.006 158.081 105.953 157.365 104.538C156.658 103.115 156.304 101.317 156.304 99.1435C156.304 96.919 156.666 95.0611 157.391 93.5696C158.115 92.0781 159.078 90.9616 160.28 90.2202C161.49 89.4787 162.815 89.108 164.256 89.108C165.355 89.108 166.276 89.2955 167.017 89.6705C167.759 90.0369 168.355 90.4972 168.807 91.0511C169.267 91.5966 169.621 92.1335 169.868 92.6619H170.072V89.3636H175.48V109.192C175.48 110.862 175.071 112.26 174.253 113.385C173.435 114.51 172.301 115.354 170.852 115.916C169.412 116.487 167.754 116.773 165.879 116.773ZM165.994 104.628C166.872 104.628 167.614 104.411 168.219 103.976C168.832 103.533 169.301 102.902 169.625 102.084C169.957 101.257 170.124 100.268 170.124 99.1179C170.124 97.9673 169.962 96.9702 169.638 96.1264C169.314 95.2741 168.845 94.6136 168.232 94.1449C167.618 93.6761 166.872 93.4418 165.994 93.4418C165.099 93.4418 164.345 93.6847 163.732 94.1705C163.118 94.6477 162.653 95.3125 162.338 96.1648C162.023 97.017 161.865 98.0014 161.865 99.1179C161.865 100.251 162.023 101.232 162.338 102.058C162.662 102.876 163.126 103.511 163.732 103.963C164.345 104.406 165.099 104.628 165.994 104.628ZM188.248 109V82.8182H198.578C200.564 82.8182 202.255 83.1974 203.653 83.956C205.051 84.706 206.116 85.75 206.849 87.0881C207.591 88.4176 207.961 89.9517 207.961 91.6903C207.961 93.429 207.586 94.9631 206.836 96.2926C206.086 97.6222 205 98.6577 203.576 99.3991C202.162 100.141 200.449 100.511 198.437 100.511H191.853V96.0753H197.542C198.608 96.0753 199.485 95.892 200.176 95.5256C200.875 95.1506 201.395 94.6349 201.735 93.9787C202.085 93.3139 202.26 92.5511 202.26 91.6903C202.26 90.821 202.085 90.0625 201.735 89.4148C201.395 88.7585 200.875 88.2514 200.176 87.8935C199.477 87.527 198.591 87.3438 197.517 87.3438H193.784V109H188.248ZM216.527 109.371C215.274 109.371 214.157 109.153 213.177 108.719C212.197 108.276 211.422 107.624 210.85 106.763C210.288 105.893 210.007 104.811 210.007 103.516C210.007 102.425 210.207 101.509 210.608 100.767C211.008 100.026 211.554 99.429 212.244 98.9773C212.934 98.5256 213.718 98.1847 214.596 97.9545C215.483 97.7244 216.412 97.5625 217.383 97.4688C218.525 97.3494 219.446 97.2386 220.145 97.1364C220.843 97.0256 221.35 96.8636 221.666 96.6506C221.981 96.4375 222.139 96.1222 222.139 95.7045V95.6278C222.139 94.8182 221.883 94.1918 221.372 93.7486C220.869 93.3054 220.153 93.0838 219.224 93.0838C218.244 93.0838 217.464 93.3011 216.885 93.7358C216.305 94.1619 215.922 94.6989 215.734 95.3466L210.697 94.9375C210.953 93.7443 211.456 92.7131 212.206 91.8438C212.956 90.9659 213.923 90.2926 215.108 89.8239C216.301 89.3466 217.681 89.108 219.25 89.108C220.341 89.108 221.385 89.2358 222.382 89.4915C223.387 89.7472 224.278 90.1435 225.054 90.6804C225.838 91.2173 226.456 91.9077 226.907 92.7514C227.359 93.5866 227.585 94.5881 227.585 95.7557V109H222.42V106.277H222.267C221.951 106.891 221.529 107.432 221.001 107.901C220.473 108.361 219.838 108.723 219.096 108.987C218.355 109.243 217.498 109.371 216.527 109.371ZM218.086 105.612C218.887 105.612 219.595 105.455 220.208 105.139C220.822 104.815 221.304 104.381 221.653 103.835C222.002 103.29 222.177 102.672 222.177 101.982V99.8977C222.007 100.009 221.772 100.111 221.474 100.205C221.184 100.29 220.856 100.371 220.49 100.447C220.123 100.516 219.757 100.58 219.39 100.639C219.024 100.69 218.691 100.737 218.393 100.78C217.754 100.874 217.196 101.023 216.718 101.227C216.241 101.432 215.87 101.709 215.606 102.058C215.342 102.399 215.21 102.825 215.21 103.337C215.21 104.078 215.478 104.645 216.015 105.037C216.561 105.42 217.251 105.612 218.086 105.612ZM240.657 116.773C238.892 116.773 237.38 116.53 236.118 116.044C234.865 115.567 233.868 114.915 233.127 114.088C232.385 113.261 231.904 112.332 231.682 111.301L236.719 110.624C236.873 111.016 237.115 111.382 237.448 111.723C237.78 112.064 238.219 112.337 238.765 112.541C239.319 112.754 239.992 112.861 240.784 112.861C241.969 112.861 242.945 112.571 243.712 111.991C244.488 111.42 244.875 110.462 244.875 109.115V105.523H244.645C244.407 106.068 244.049 106.584 243.571 107.07C243.094 107.555 242.48 107.952 241.73 108.259C240.98 108.565 240.086 108.719 239.046 108.719C237.571 108.719 236.229 108.378 235.019 107.696C233.817 107.006 232.858 105.953 232.142 104.538C231.435 103.115 231.081 101.317 231.081 99.1435C231.081 96.919 231.444 95.0611 232.168 93.5696C232.892 92.0781 233.855 90.9616 235.057 90.2202C236.267 89.4787 237.593 89.108 239.033 89.108C240.132 89.108 241.053 89.2955 241.794 89.6705C242.536 90.0369 243.132 90.4972 243.584 91.0511C244.044 91.5966 244.398 92.1335 244.645 92.6619H244.85V89.3636H250.257V109.192C250.257 110.862 249.848 112.26 249.03 113.385C248.212 114.51 247.078 115.354 245.63 115.916C244.189 116.487 242.532 116.773 240.657 116.773ZM240.772 104.628C241.65 104.628 242.391 104.411 242.996 103.976C243.61 103.533 244.078 102.902 244.402 102.084C244.735 101.257 244.901 100.268 244.901 99.1179C244.901 97.9673 244.739 96.9702 244.415 96.1264C244.091 95.2741 243.623 94.6136 243.009 94.1449C242.395 93.6761 241.65 93.4418 240.772 93.4418C239.877 93.4418 239.123 93.6847 238.509 94.1705C237.895 94.6477 237.431 95.3125 237.115 96.1648C236.8 97.017 236.642 98.0014 236.642 99.1179C236.642 100.251 236.8 101.232 237.115 102.058C237.439 102.876 237.904 103.511 238.509 103.963C239.123 104.406 239.877 104.628 240.772 104.628ZM263.54 109.384C261.52 109.384 259.782 108.974 258.324 108.156C256.875 107.33 255.759 106.162 254.975 104.653C254.191 103.136 253.799 101.342 253.799 99.2713C253.799 97.2514 254.191 95.4787 254.975 93.9531C255.759 92.4276 256.863 91.2386 258.286 90.3864C259.718 89.5341 261.397 89.108 263.323 89.108C264.618 89.108 265.824 89.3168 266.941 89.7344C268.066 90.1435 269.046 90.7614 269.881 91.5881C270.725 92.4148 271.381 93.4545 271.85 94.7074C272.319 95.9517 272.553 97.4091 272.553 99.0795V100.575H255.972V97.2003H267.426C267.426 96.4162 267.256 95.7216 266.915 95.1165C266.574 94.5114 266.101 94.0384 265.496 93.6974C264.9 93.348 264.205 93.1733 263.412 93.1733C262.586 93.1733 261.853 93.3651 261.213 93.7486C260.583 94.1236 260.088 94.6307 259.73 95.2699C259.373 95.9006 259.189 96.6037 259.181 97.3793V100.588C259.181 101.56 259.36 102.399 259.718 103.107C260.084 103.814 260.6 104.359 261.265 104.743C261.929 105.126 262.718 105.318 263.63 105.318C264.235 105.318 264.789 105.233 265.292 105.062C265.794 104.892 266.225 104.636 266.583 104.295C266.941 103.955 267.213 103.537 267.401 103.043L272.438 103.375C272.182 104.585 271.658 105.642 270.865 106.545C270.081 107.44 269.067 108.139 267.823 108.642C266.587 109.136 265.159 109.384 263.54 109.384Z" fill="white"/>
<path d="M78.3486 149.97C78.3486 148.177 76.8495 146.723 75 146.723C73.1507 146.723 71.6514 148.177 71.6514 149.97C71.6514 151.763 73.1507 153.217 75 153.217C76.8495 153.217 78.3486 151.763 78.3486 149.97Z" fill="#53C1DE"/>
<path fill-rule="evenodd" clip-rule="evenodd" d="M85.8755 143.942C86.5826 141.156 87.4715 135.989 84.338 134.238C81.2192 132.494 77.1605 135.836 75.0174 137.841C72.8805 135.856 68.7079 132.528 65.577 134.285C62.4594 136.035 63.4208 141.116 64.1436 143.92C61.2354 144.721 56.25 146.446 56.25 149.97C56.25 153.484 61.2302 155.361 64.1212 156.161C63.3957 158.98 62.4824 163.989 65.6041 165.735C68.7466 167.491 72.9063 164.243 75.0692 162.215C77.2261 164.233 81.2458 167.503 84.3652 165.752C87.4946 163.995 86.6795 158.898 85.9566 156.078C88.7591 155.276 93.75 153.44 93.75 149.97C93.75 146.479 88.7379 144.74 85.8755 143.942ZM85.5203 154.584C85.0456 153.127 84.405 151.578 83.6214 149.978C84.3694 148.415 84.9851 146.886 85.4464 145.439C87.5448 146.028 92.1481 147.377 92.1481 149.97C92.1481 152.587 87.7308 153.948 85.5203 154.584ZM83.5624 164.408C81.2351 165.714 77.7777 162.587 76.1848 161.101C77.2415 159.981 78.2975 158.678 79.3281 157.231C81.1411 157.075 82.8538 156.82 84.407 156.472C84.9158 158.467 85.9003 163.095 83.5624 164.408ZM66.4045 164.389C64.0768 163.088 65.1407 158.618 65.6745 156.542C67.2104 156.871 68.9107 157.108 70.728 157.251C71.7654 158.667 72.852 159.968 73.947 161.107C72.5941 162.376 68.7431 165.696 66.4045 164.389ZM57.8519 149.97C57.8519 147.342 62.4276 146.004 64.5738 145.416C65.0431 146.896 65.6587 148.443 66.4015 150.008C65.6491 151.596 65.0247 153.168 64.5511 154.665C62.5046 154.097 57.8519 152.599 57.8519 149.97ZM66.3796 135.629C68.7169 134.318 72.3434 137.512 73.8949 138.95C72.8055 140.084 71.7289 141.376 70.7004 142.783C68.9368 142.942 67.2484 143.196 65.6964 143.537C65.1141 141.276 64.0449 136.94 66.3796 135.629ZM80.4741 144.471C81.6707 144.618 82.817 144.812 83.8934 145.051C83.5703 146.055 83.1675 147.105 82.6931 148.182C82.0055 146.917 81.2674 145.677 80.4741 144.471ZM75.0179 140.06C75.7568 140.836 76.4968 141.703 77.2247 142.643C75.7482 142.575 74.2691 142.575 72.7925 142.642C73.5211 141.711 74.2674 140.845 75.0179 140.06ZM67.3206 148.181C66.8541 147.108 66.455 146.053 66.129 145.034C67.199 144.802 68.34 144.612 69.5287 144.468C68.7333 145.671 67.9964 146.911 67.3206 148.181ZM69.5629 155.582C68.3348 155.449 67.1766 155.269 66.107 155.043C66.438 154.007 66.846 152.929 67.3225 151.834C68.0075 153.117 68.7556 154.368 69.5629 155.582ZM75.0622 159.989C74.303 159.195 73.5457 158.316 72.806 157.371C74.291 157.428 75.7789 157.428 77.2637 157.364C76.5335 158.326 75.7961 159.206 75.0622 159.989ZM82.7084 151.778C83.2096 152.885 83.6322 153.957 83.9677 154.976C82.8803 155.217 81.7065 155.41 80.4696 155.554C81.2688 154.326 82.0186 153.067 82.7084 151.778ZM78.4341 155.743C76.1627 155.9 73.877 155.898 71.6048 155.755C70.3136 153.927 69.1643 152.004 68.1722 150.007C69.1594 148.015 70.3004 146.096 71.5855 144.27C73.8594 144.103 76.1473 144.103 78.4211 144.271C79.6951 146.096 80.8344 148.011 81.8446 149.985C80.8464 151.977 79.6994 153.9 78.4341 155.743ZM83.5379 135.583C85.8757 136.891 84.8351 141.534 84.3244 143.553C82.7687 143.205 81.0792 142.946 79.3104 142.785C78.2799 141.363 77.2123 140.069 76.1405 138.949C77.7119 137.481 81.2226 134.289 83.5379 135.583Z" fill="#53C1DE"/>
<rect x="107.5" y="132.5" width="35" height="35" fill="#FFCA28"/>
<path d="M128.75 161.61L131.327 159.904C131.529 160.539 132.808 162.046 134.423 162.046C136.038 162.046 136.788 161.163 136.788 160.579C136.788 158.985 135.139 158.423 134.347 158.153C134.218 158.109 134.111 158.072 134.038 158.041C134.001 158.024 133.945 158.003 133.872 157.975C132.991 157.639 129.74 156.397 129.74 152.796C129.74 148.831 133.567 148.375 134.433 148.375C134.999 148.375 137.721 148.444 139.077 150.992L136.577 152.737C136.029 151.627 135.118 151.26 134.558 151.26C133.173 151.26 132.885 152.275 132.885 152.737C132.885 154.033 134.389 154.615 135.659 155.105C135.991 155.234 136.308 155.356 136.577 155.483C137.962 156.137 140 157.208 140 160.579C140 162.267 138.584 165 135.019 165C130.231 165 128.962 162.125 128.75 161.61Z" fill="#3E3E3E"/>
<path d="M116.25 161.948L118.936 160.244C119.146 160.878 119.964 162.047 121.151 162.047C122.337 162.047 122.945 160.829 122.945 160.244V148.75H126.248V160.244C126.301 161.829 125.422 165 121.542 165C117.974 165 116.491 162.88 116.25 161.948Z" fill="#3E3E3E"/>
<path d="M162.5 165L160 133.75H190L187.5 165L175 168.75L162.5 165Z" fill="#1172B8"/>
<path d="M187.5 136.25H175V166.875L185 163.75L187.5 136.25Z" fill="#33AADD"/>
<path d="M179.375 151.875H166.875L166.25 147.5L176.25 144.375H166.25L165.625 140.625H185L184.375 145L176.25 148.125H183.75L182.5 160L175 162.5L167.5 160L166.875 153.75H170.625L171.25 156.875L175 158.125L178.75 156.875L179.375 151.875Z" fill="white"/>
<path d="M212.5 165L210 133.75H240L237.5 165L225 168.75L212.5 165Z" fill="#E44D26"/>
<path d="M237.5 136.25H225V166.875L235 163.75L237.5 136.25Z" fill="#F16529"/>
<path d="M216.875 151.875L215.625 140H235L234.375 143.75H219.375L220 148.125H233.75L232.5 160L225 162.5L217.5 160L216.875 153.75H220.625L221.25 156.875L225 158.125L228.75 156.875L229.375 151.875H216.875Z" fill="white"/>
</svg>
