<svg width="300" height="200" viewBox="0 0 300 200" fill="none" xmlns="http://www.w3.org/2000/svg">
<rect width="300" height="200" fill="#FF0000"/>
<path d="M176.36 40.0199C175.581 37.1287 173.302 34.849 170.41 34.0706C165.128 32.625 144 32.625 144 32.625C144 32.625 122.871 32.625 117.589 34.015C114.754 34.7934 112.418 37.1287 111.64 40.0199C110.25 45.302 110.25 56.2555 110.25 56.2555C110.25 56.2555 110.25 67.2645 111.64 72.491C112.418 75.3822 114.698 77.6619 117.589 78.4403C122.927 79.8859 144 79.8859 144 79.8859C144 79.8859 165.128 79.8859 170.41 78.4959C173.302 77.7175 175.581 75.4378 176.36 72.5466C177.75 67.2645 177.75 56.3111 177.75 56.3111C177.75 56.3111 177.805 45.302 176.36 40.0199Z" fill="white"/>
<path d="M137.272 65.9888L154.842 55.8694L137.272 45.75V65.9888Z" fill="#FF0000"/>
<path d="M18.7415 97.8182H24.9418L30.9119 109.094H31.1676L37.1378 97.8182H43.3381L33.7884 114.744V124H28.2912V114.744L18.7415 97.8182ZM51.0181 124.384C49.0323 124.384 47.315 123.962 45.8661 123.118C44.4258 122.266 43.3136 121.081 42.5295 119.564C41.7454 118.038 41.3533 116.27 41.3533 114.259C41.3533 112.23 41.7454 110.457 42.5295 108.94C43.3136 107.415 44.4258 106.23 45.8661 105.386C47.315 104.534 49.0323 104.108 51.0181 104.108C53.0039 104.108 54.717 104.534 56.1573 105.386C57.6062 106.23 58.7227 107.415 59.5067 108.94C60.2908 110.457 60.6829 112.23 60.6829 114.259C60.6829 116.27 60.2908 118.038 59.5067 119.564C58.7227 121.081 57.6062 122.266 56.1573 123.118C54.717 123.962 53.0039 124.384 51.0181 124.384ZM51.0437 120.165C51.9471 120.165 52.7013 119.909 53.3065 119.398C53.9116 118.878 54.3675 118.17 54.6744 117.276C54.9897 116.381 55.1474 115.362 55.1474 114.22C55.1474 113.078 54.9897 112.06 54.6744 111.165C54.3675 110.27 53.9116 109.562 53.3065 109.043C52.7013 108.523 51.9471 108.263 51.0437 108.263C50.1317 108.263 49.3647 108.523 48.7425 109.043C48.1289 109.562 47.6644 110.27 47.3491 111.165C47.0423 112.06 46.8888 113.078 46.8888 114.22C46.8888 115.362 47.0423 116.381 47.3491 117.276C47.6644 118.17 48.1289 118.878 48.7425 119.398C49.3647 119.909 50.1317 120.165 51.0437 120.165ZM76.8164 115.639V104.364H82.2624V124H77.0337V120.433H76.8292C76.386 121.584 75.6488 122.509 74.6175 123.207C73.5948 123.906 72.3462 124.256 70.8718 124.256C69.5593 124.256 68.4045 123.957 67.4073 123.361C66.4102 122.764 65.6303 121.916 65.0678 120.817C64.5138 119.717 64.2326 118.401 64.2241 116.866V104.364H69.6701V115.895C69.6786 117.054 69.9897 117.97 70.6033 118.643C71.217 119.317 72.0394 119.653 73.0707 119.653C73.7269 119.653 74.3406 119.504 74.9116 119.206C75.4826 118.899 75.9428 118.447 76.2923 117.851C76.6502 117.254 76.8249 116.517 76.8164 115.639ZM83.8956 102.382V97.8182H105.398V102.382H97.3828V124H91.9112V102.382H83.8956ZM118.758 115.639V104.364H124.204V124H118.975V120.433H118.771C118.327 121.584 117.59 122.509 116.559 123.207C115.536 123.906 114.288 124.256 112.813 124.256C111.501 124.256 110.346 123.957 109.349 123.361C108.352 122.764 107.572 121.916 107.009 120.817C106.455 119.717 106.174 118.401 106.165 116.866V104.364H111.612V115.895C111.62 117.054 111.931 117.97 112.545 118.643C113.158 119.317 113.981 119.653 115.012 119.653C115.668 119.653 116.282 119.504 116.853 119.206C117.424 118.899 117.884 118.447 118.234 117.851C118.592 117.254 118.766 116.517 118.758 115.639ZM128.662 124V97.8182H134.108V107.662H134.275C134.513 107.134 134.858 106.597 135.31 106.051C135.77 105.497 136.367 105.037 137.1 104.67C137.841 104.295 138.762 104.108 139.861 104.108C141.293 104.108 142.614 104.483 143.824 105.233C145.034 105.974 146.002 107.095 146.726 108.595C147.451 110.087 147.813 111.957 147.813 114.207C147.813 116.398 147.459 118.247 146.752 119.756C146.053 121.256 145.098 122.393 143.888 123.169C142.686 123.936 141.34 124.32 139.848 124.32C138.792 124.32 137.892 124.145 137.151 123.795C136.418 123.446 135.817 123.007 135.348 122.479C134.88 121.942 134.522 121.401 134.275 120.855H134.032V124H128.662ZM133.993 114.182C133.993 115.349 134.155 116.368 134.479 117.237C134.803 118.107 135.272 118.784 135.885 119.27C136.499 119.747 137.245 119.986 138.123 119.986C139.009 119.986 139.759 119.743 140.373 119.257C140.986 118.763 141.451 118.081 141.766 117.212C142.09 116.334 142.252 115.324 142.252 114.182C142.252 113.048 142.094 112.051 141.779 111.19C141.463 110.33 140.999 109.656 140.385 109.17C139.772 108.685 139.017 108.442 138.123 108.442C137.236 108.442 136.486 108.676 135.873 109.145C135.267 109.614 134.803 110.278 134.479 111.139C134.155 112 133.993 113.014 133.993 114.182ZM160.396 124.384C158.376 124.384 156.637 123.974 155.18 123.156C153.731 122.33 152.614 121.162 151.83 119.653C151.046 118.136 150.654 116.342 150.654 114.271C150.654 112.251 151.046 110.479 151.83 108.953C152.614 107.428 153.718 106.239 155.141 105.386C156.573 104.534 158.252 104.108 160.178 104.108C161.474 104.108 162.68 104.317 163.796 104.734C164.921 105.143 165.901 105.761 166.737 106.588C167.58 107.415 168.237 108.455 168.705 109.707C169.174 110.952 169.408 112.409 169.408 114.08V115.575H152.827V112.2H164.282C164.282 111.416 164.112 110.722 163.771 110.116C163.43 109.511 162.957 109.038 162.352 108.697C161.755 108.348 161.06 108.173 160.268 108.173C159.441 108.173 158.708 108.365 158.069 108.749C157.438 109.124 156.944 109.631 156.586 110.27C156.228 110.901 156.045 111.604 156.036 112.379V115.588C156.036 116.56 156.215 117.399 156.573 118.107C156.94 118.814 157.455 119.359 158.12 119.743C158.785 120.126 159.573 120.318 160.485 120.318C161.09 120.318 161.644 120.233 162.147 120.062C162.65 119.892 163.08 119.636 163.438 119.295C163.796 118.955 164.069 118.537 164.256 118.043L169.293 118.375C169.038 119.585 168.513 120.642 167.721 121.545C166.937 122.44 165.923 123.139 164.678 123.642C163.442 124.136 162.015 124.384 160.396 124.384ZM204.498 106.984H198.898C198.796 106.26 198.587 105.616 198.272 105.054C197.956 104.483 197.551 103.997 197.057 103.597C196.563 103.196 195.992 102.889 195.344 102.676C194.705 102.463 194.01 102.357 193.26 102.357C191.905 102.357 190.725 102.693 189.719 103.366C188.713 104.031 187.934 105.003 187.38 106.281C186.826 107.551 186.549 109.094 186.549 110.909C186.549 112.776 186.826 114.344 187.38 115.614C187.942 116.884 188.726 117.842 189.732 118.49C190.738 119.138 191.901 119.462 193.222 119.462C193.963 119.462 194.65 119.364 195.28 119.168C195.919 118.972 196.486 118.686 196.98 118.311C197.475 117.928 197.884 117.463 198.208 116.918C198.54 116.372 198.77 115.75 198.898 115.051L204.498 115.077C204.353 116.278 203.99 117.438 203.411 118.554C202.84 119.662 202.069 120.655 201.097 121.533C200.134 122.402 198.983 123.092 197.645 123.604C196.316 124.107 194.811 124.358 193.132 124.358C190.797 124.358 188.709 123.83 186.868 122.773C185.036 121.716 183.587 120.186 182.522 118.183C181.465 116.18 180.936 113.756 180.936 110.909C180.936 108.054 181.473 105.625 182.547 103.622C183.621 101.619 185.078 100.094 186.919 99.0455C188.76 97.9886 190.831 97.4602 193.132 97.4602C194.65 97.4602 196.056 97.6733 197.351 98.0994C198.655 98.5256 199.81 99.1477 200.816 99.9659C201.821 100.776 202.64 101.768 203.27 102.945C203.909 104.121 204.319 105.467 204.498 106.984ZM213.811 97.8182V124H208.365V97.8182H213.811ZM227.045 124.384C225.06 124.384 223.342 123.962 221.893 123.118C220.453 122.266 219.341 121.081 218.557 119.564C217.773 118.038 217.381 116.27 217.381 114.259C217.381 112.23 217.773 110.457 218.557 108.94C219.341 107.415 220.453 106.23 221.893 105.386C223.342 104.534 225.06 104.108 227.045 104.108C229.031 104.108 230.744 104.534 232.185 105.386C233.634 106.23 234.75 107.415 235.534 108.94C236.318 110.457 236.71 112.23 236.71 114.259C236.71 116.27 236.318 118.038 235.534 119.564C234.75 121.081 233.634 122.266 232.185 123.118C230.744 123.962 229.031 124.384 227.045 124.384ZM227.071 120.165C227.974 120.165 228.729 119.909 229.334 119.398C229.939 118.878 230.395 118.17 230.702 117.276C231.017 116.381 231.175 115.362 231.175 114.22C231.175 113.078 231.017 112.06 230.702 111.165C230.395 110.27 229.939 109.562 229.334 109.043C228.729 108.523 227.974 108.263 227.071 108.263C226.159 108.263 225.392 108.523 224.77 109.043C224.156 109.562 223.692 110.27 223.376 111.165C223.07 112.06 222.916 113.078 222.916 114.22C222.916 115.362 223.07 116.381 223.376 117.276C223.692 118.17 224.156 118.878 224.77 119.398C225.392 119.909 226.159 120.165 227.071 120.165ZM245.697 112.648V124H240.251V104.364H245.442V107.828H245.672C246.107 106.686 246.835 105.783 247.858 105.118C248.881 104.445 250.121 104.108 251.578 104.108C252.942 104.108 254.131 104.406 255.145 105.003C256.159 105.599 256.947 106.452 257.51 107.56C258.072 108.659 258.354 109.972 258.354 111.497V124H252.908V112.469C252.916 111.267 252.609 110.33 251.987 109.656C251.365 108.974 250.509 108.634 249.418 108.634C248.685 108.634 248.037 108.791 247.474 109.107C246.92 109.422 246.486 109.882 246.17 110.487C245.864 111.084 245.706 111.804 245.697 112.648ZM271.595 124.384C269.575 124.384 267.836 123.974 266.379 123.156C264.93 122.33 263.814 121.162 263.029 119.653C262.245 118.136 261.853 116.342 261.853 114.271C261.853 112.251 262.245 110.479 263.029 108.953C263.814 107.428 264.917 106.239 266.341 105.386C267.772 104.534 269.451 104.108 271.377 104.108C272.673 104.108 273.879 104.317 274.995 104.734C276.12 105.143 277.1 105.761 277.936 106.588C278.779 107.415 279.436 108.455 279.904 109.707C280.373 110.952 280.608 112.409 280.608 114.08V115.575H264.027V112.2H275.481C275.481 111.416 275.311 110.722 274.97 110.116C274.629 109.511 274.156 109.038 273.551 108.697C272.954 108.348 272.26 108.173 271.467 108.173C270.64 108.173 269.907 108.365 269.268 108.749C268.637 109.124 268.143 109.631 267.785 110.27C267.427 110.901 267.244 111.604 267.235 112.379V115.588C267.235 116.56 267.414 117.399 267.772 118.107C268.139 118.814 268.654 119.359 269.319 119.743C269.984 120.126 270.772 120.318 271.684 120.318C272.289 120.318 272.843 120.233 273.346 120.062C273.849 119.892 274.279 119.636 274.637 119.295C274.995 118.955 275.268 118.537 275.456 118.043L280.493 118.375C280.237 119.585 279.713 120.642 278.92 121.545C278.136 122.44 277.122 123.139 275.877 123.642C274.642 124.136 273.214 124.384 271.595 124.384Z" fill="white"/>
<path d="M78.3486 161.97C78.3486 160.177 76.8495 158.723 75 158.723C73.1507 158.723 71.6514 160.177 71.6514 161.97C71.6514 163.763 73.1507 165.217 75 165.217C76.8495 165.217 78.3486 163.763 78.3486 161.97Z" fill="#53C1DE"/>
<path fill-rule="evenodd" clip-rule="evenodd" d="M85.8755 155.942C86.5826 153.156 87.4715 147.989 84.338 146.238C81.2192 144.494 77.1605 147.836 75.0174 149.841C72.8805 147.856 68.7079 144.528 65.577 146.285C62.4594 148.035 63.4208 153.116 64.1436 155.92C61.2354 156.721 56.25 158.446 56.25 161.97C56.25 165.484 61.2302 167.361 64.1212 168.161C63.3957 170.98 62.4824 175.989 65.6041 177.735C68.7466 179.491 72.9063 176.243 75.0692 174.215C77.2261 176.233 81.2458 179.503 84.3652 177.752C87.4946 175.995 86.6795 170.898 85.9566 168.078C88.7591 167.276 93.75 165.44 93.75 161.97C93.75 158.479 88.7379 156.74 85.8755 155.942ZM85.5203 166.584C85.0456 165.127 84.405 163.578 83.6214 161.978C84.3694 160.415 84.9851 158.886 85.4464 157.439C87.5448 158.028 92.1481 159.377 92.1481 161.97C92.1481 164.587 87.7308 165.948 85.5203 166.584ZM83.5624 176.408C81.2351 177.714 77.7777 174.587 76.1848 173.101C77.2415 171.981 78.2975 170.678 79.3281 169.231C81.1411 169.075 82.8538 168.82 84.407 168.472C84.9158 170.467 85.9003 175.095 83.5624 176.408ZM66.4045 176.389C64.0768 175.088 65.1407 170.618 65.6745 168.542C67.2104 168.871 68.9107 169.108 70.728 169.251C71.7654 170.667 72.852 171.968 73.947 173.107C72.5941 174.376 68.7431 177.696 66.4045 176.389ZM57.8519 161.97C57.8519 159.342 62.4276 158.004 64.5738 157.416C65.0431 158.896 65.6587 160.443 66.4015 162.008C65.6491 163.596 65.0247 165.168 64.5511 166.665C62.5046 166.097 57.8519 164.599 57.8519 161.97ZM66.3796 147.629C68.7169 146.318 72.3434 149.512 73.8949 150.95C72.8055 152.084 71.7289 153.376 70.7004 154.783C68.9368 154.942 67.2484 155.196 65.6964 155.537C65.1141 153.276 64.0449 148.94 66.3796 147.629ZM80.4741 156.471C81.6707 156.618 82.817 156.812 83.8934 157.051C83.5703 158.055 83.1675 159.105 82.6931 160.182C82.0055 158.917 81.2674 157.677 80.4741 156.471ZM75.0179 152.06C75.7568 152.836 76.4968 153.703 77.2247 154.643C75.7482 154.575 74.2691 154.575 72.7925 154.642C73.5211 153.711 74.2674 152.845 75.0179 152.06ZM67.3206 160.181C66.8541 159.108 66.455 158.053 66.129 157.034C67.199 156.802 68.34 156.612 69.5287 156.468C68.7333 157.671 67.9964 158.911 67.3206 160.181ZM69.5629 167.582C68.3348 167.449 67.1766 167.269 66.107 167.043C66.438 166.007 66.846 164.929 67.3225 163.834C68.0075 165.117 68.7556 166.368 69.5629 167.582ZM75.0622 171.989C74.303 171.195 73.5457 170.316 72.806 169.371C74.291 169.428 75.7789 169.428 77.2637 169.364C76.5335 170.326 75.7961 171.206 75.0622 171.989ZM82.7084 163.778C83.2096 164.885 83.6322 165.957 83.9677 166.976C82.8803 167.217 81.7065 167.41 80.4696 167.554C81.2688 166.326 82.0186 165.067 82.7084 163.778ZM78.4341 167.743C76.1627 167.9 73.877 167.898 71.6048 167.755C70.3136 165.927 69.1643 164.004 68.1722 162.007C69.1594 160.015 70.3004 158.096 71.5855 156.27C73.8594 156.103 76.1473 156.103 78.4211 156.271C79.6951 158.096 80.8344 160.011 81.8446 161.985C80.8464 163.977 79.6994 165.9 78.4341 167.743ZM83.5379 147.583C85.8757 148.891 84.8351 153.534 84.3244 155.553C82.7687 155.205 81.0792 154.946 79.3104 154.785C78.2799 153.363 77.2123 152.069 76.1405 150.949C77.7119 149.481 81.2226 146.289 83.5379 147.583Z" fill="#53C1DE"/>
<rect x="107.5" y="144.5" width="35" height="35" fill="#FFCA28"/>
<path d="M128.75 173.61L131.327 171.904C131.529 172.539 132.808 174.046 134.423 174.046C136.038 174.046 136.788 173.163 136.788 172.579C136.788 170.985 135.139 170.423 134.347 170.153C134.218 170.109 134.111 170.072 134.038 170.041C134.001 170.024 133.945 170.003 133.872 169.975C132.991 169.639 129.74 168.397 129.74 164.796C129.74 160.831 133.567 160.375 134.433 160.375C134.999 160.375 137.721 160.444 139.077 162.992L136.577 164.737C136.029 163.627 135.118 163.26 134.558 163.26C133.173 163.26 132.885 164.275 132.885 164.737C132.885 166.033 134.389 166.615 135.659 167.105C135.991 167.234 136.308 167.356 136.577 167.483C137.962 168.137 140 169.208 140 172.579C140 174.267 138.584 177 135.019 177C130.231 177 128.962 174.125 128.75 173.61Z" fill="#3E3E3E"/>
<path d="M116.25 173.948L118.936 172.244C119.146 172.878 119.964 174.047 121.151 174.047C122.337 174.047 122.945 172.829 122.945 172.244V160.75H126.248V172.244C126.301 173.829 125.422 177 121.542 177C117.974 177 116.491 174.88 116.25 173.948Z" fill="#3E3E3E"/>
<path d="M162.5 177L160 145.75H190L187.5 177L175 180.75L162.5 177Z" fill="#1172B8"/>
<path d="M187.5 148.25H175V178.875L185 175.75L187.5 148.25Z" fill="#33AADD"/>
<path d="M179.375 163.875H166.875L166.25 159.5L176.25 156.375H166.25L165.625 152.625H185L184.375 157L176.25 160.125H183.75L182.5 172L175 174.5L167.5 172L166.875 165.75H170.625L171.25 168.875L175 170.125L178.75 168.875L179.375 163.875Z" fill="white"/>
<path d="M212.5 177L210 145.75H240L237.5 177L225 180.75L212.5 177Z" fill="#E44D26"/>
<path d="M237.5 148.25H225V178.875L235 175.75L237.5 148.25Z" fill="#F16529"/>
<path d="M216.875 163.875L215.625 152H235L234.375 155.75H219.375L220 160.125H233.75L232.5 172L225 174.5L217.5 172L216.875 165.75H220.625L221.25 168.875L225 170.125L228.75 168.875L229.375 163.875H216.875Z" fill="white"/>
</svg>
